<?xml version="1.0" encoding="UTF-8"?>
<svg version="1.1" xmlns="http://www.w3.org/2000/svg" width="1080" height="1080">
<path d="M0 0 C356.4 0 712.8 0 1080 0 C1080 356.4 1080 712.8 1080 1080 C723.6 1080 367.2 1080 0 1080 C0 723.6 0 367.2 0 0 Z " fill="#000000" transform="translate(0,0)"/>
<path d="M0 0 C7.79759459 0.01142359 15.59519033 0.0167369 23.39279127 0.021703 C39.35976341 0.03200045 55.32671871 0.04944865 71.29367852 0.07202661 C70.99002862 2.05249027 70.68637872 4.03295394 70.38272882 6.0134176 C70.23766928 9.36681325 71.73123729 11.39744564 73.54367852 14.13452661 C79.29644534 23.24307407 82.89421117 32.67522251 84.66867852 43.32202661 C84.87492852 43.89952661 85.08117852 44.47702661 85.29367852 45.07202661 C88.9573142 46.2932385 90.05676301 45.37121812 93.43039727 43.84155786 C100.47844594 40.93072854 109.05043125 42.07202661 116.29367852 42.07202661 C116.29367852 28.21202661 116.29367852 14.35202661 116.29367852 0.07202661 C126.19367852 0.07202661 136.09367852 0.07202661 146.29367852 0.07202661 C146.29367852 13.27202661 146.29367852 26.47202661 146.29367852 40.07202661 C158.56246757 41.47346816 158.56246757 41.47346816 170.15305352 38.31421411 C172.05676219 35.99357751 173.65229647 33.58237563 175.29367852 31.07202661 C180.78430687 26.00375429 187.24889791 22.02439074 193.49680352 17.96655786 C196.34561362 16.09836267 196.34561362 16.09836267 199.02805352 13.83374536 C201.29367852 12.07202661 201.29367852 12.07202661 203.29367852 12.07202661 C203.60111993 10.8983352 203.60111993 10.8983352 203.91477227 9.70093286 C204.31889337 8.18306177 204.31889337 8.18306177 204.73117852 6.63452661 C204.99801446 5.62519067 205.2648504 4.61585474 205.53977227 3.57593286 C206.29367852 1.07202661 206.29367852 1.07202661 207.29367852 0.07202661 C208.7472883 -0.03441916 210.20600655 -0.07202441 211.66347528 -0.08187354 C213.07872994 -0.09477423 213.07872994 -0.09477423 214.52257562 -0.10793555 C216.08799348 -0.11432547 216.08799348 -0.11432547 217.68503594 -0.12084448 C218.77769769 -0.12902197 219.87035943 -0.13719946 220.99613214 -0.14562476 C224.63046484 -0.17053979 228.2647583 -0.18701154 231.89914727 -0.20141089 C233.75655762 -0.20939641 233.75655762 -0.20939641 235.6514914 -0.21754324 C240.85600177 -0.23878788 246.06050621 -0.25791664 251.26504827 -0.26916564 C258.72325388 -0.28539089 266.18093727 -0.31852171 273.638946 -0.37556648 C279.51489836 -0.41897568 285.39068908 -0.43491502 291.26678681 -0.44129813 C293.76547037 -0.44802322 296.26414597 -0.46327763 298.76272416 -0.48718894 C302.26067007 -0.51875035 305.75729796 -0.51888982 309.25534844 -0.51146948 C310.2888392 -0.52787482 311.32232995 -0.54428015 312.38713861 -0.56118262 C316.97532894 -0.52132601 320.25922727 -0.46855186 323.92107415 2.48349512 C326.65005778 5.4608394 327.18338453 6.35511565 327.79367852 10.32202661 C327.19014116 14.8485568 326.02868155 15.94135024 322.70383477 18.81030786 C320.29367852 20.07202661 320.29367852 20.07202661 311.29367852 22.07202661 C311.29367852 28.34202661 311.29367852 34.61202661 311.29367852 41.07202661 C317.09371051 41.04382133 322.889708 41.00044627 328.68869805 40.91943872 C330.65736505 40.8963747 332.62615342 40.88189048 334.59494805 40.87646997 C347.30220311 40.83460623 357.23408042 40.79403489 367.04367852 31.82202661 C373.66203694 23.60775198 376.44127369 11.26025317 378.29367852 1.07202661 C379.94367852 1.07202661 381.59367852 1.07202661 383.29367852 1.07202661 C383.31860741 6.1582861 383.33664576 11.24450913 383.34861016 16.33081567 C383.35360396 18.05705896 383.36040131 19.7832981 383.36911798 21.50952661 C383.38140267 24.00693294 383.38695648 26.50428282 383.39133477 29.00171411 C383.39649606 29.75943109 383.40165734 30.51714807 383.40697503 31.29782617 C383.40755828 37.01218493 382.86977136 42.31109827 382.29367852 48.07202661 C334.27867852 48.56702661 334.27867852 48.56702661 285.29367852 49.07202661 C281.86040289 55.76411578 281.86040289 55.76411578 279.79367852 62.50952661 C278.47916562 67.67470501 276.5592405 72.2646146 274.29367852 77.07202661 C273.83992852 78.18577661 273.38617852 79.29952661 272.91867852 80.44702661 C269.41602439 88.26063968 265.21070012 95.46553189 260.20774102 102.40796411 C258.43263702 104.87861907 256.71149134 107.38088584 255.00022149 109.89600122 C246.02254921 123.04831026 246.02254921 123.04831026 241.29367852 128.07202661 C240.63367852 128.07202661 239.97367852 128.07202661 239.29367852 128.07202661 C238.96367852 129.06202661 238.63367852 130.05202661 238.29367852 131.07202661 C236.73410821 132.41895044 236.73410821 132.41895044 234.71555352 133.77905786 C233.97321465 134.28066431 233.23087579 134.78227075 232.4660418 135.29907739 C231.66666192 135.82227563 230.86728204 136.34547388 230.04367852 136.88452661 C229.22754083 137.42061548 228.41140313 137.95670434 227.57053399 138.50903833 C216.46567582 145.67761115 206.22413845 150.19972606 192.89524102 151.26343286 C188.72070829 151.60764872 185.45688746 152.31271015 181.60617852 154.00952661 C174.24127764 157.16266037 166.39192709 157.61666566 158.49680352 158.49390161 C151.25301555 159.12524944 151.25301555 159.12524944 144.85617852 162.19702661 C141.43703946 164.69883568 139.44029625 164.67517101 135.29367852 164.07202661 C131.57768955 161.96066924 129.20561901 159.34307187 127.65305352 155.30640161 C127.02232789 151.38493352 127.93567647 147.68950299 128.75070977 143.84155786 C129.22374962 140.55750425 129.30265684 137.69248479 129.23899102 134.39233911 C129.1808849 128.09978823 130.06787529 122.28006136 131.35617852 116.13452661 C131.5802337 115.05260034 131.80428887 113.97067407 132.0351336 112.85596216 C135.22321511 98.09688646 140.12951231 84.24174114 146.23117852 70.44702661 C146.80485162 69.13278711 146.80485162 69.13278711 147.39011407 67.79199731 C150.68060044 60.62666902 154.4466005 55.73675889 159.29367852 49.07202661 C149.39367852 48.74202661 139.49367852 48.41202661 129.29367852 48.07202661 C128.96367852 50.38202661 128.63367852 52.69202661 128.29367852 55.07202661 C127.91938796 56.52113804 127.50488325 57.9606911 127.04367852 59.38452661 C125.244015 65.12926535 123.6643641 70.92808464 122.09543633 76.73926294 C121.2470275 79.83903787 120.43251128 82.76161316 119.11789727 85.70093286 C118.00827841 88.89305917 118.33923054 91.33665719 118.66867852 94.69702661 C119.30655391 102.40732216 119.41550029 110.08726384 119.41867852 117.82202661 C119.42302911 118.94560571 119.42737969 120.06918481 119.43186212 121.22681177 C119.41465551 131.89334306 119.29438093 142.07900575 115.29367852 152.07202661 C114.94692071 152.95374536 114.6001629 153.83546411 114.24289727 154.74390161 C113.55746808 156.46869071 112.86424288 158.19041597 112.16086602 159.90796411 C111.48000773 161.6070429 110.87250809 163.33553789 110.29367852 165.07202661 C109.63367852 165.07202661 108.97367852 165.07202661 108.29367852 165.07202661 C107.98430352 166.15483911 107.98430352 166.15483911 107.66867852 167.25952661 C106.18639423 170.29147175 104.46697913 171.76662493 101.81711602 173.80249536 C100.03898987 175.19823835 100.03898987 175.19823835 98.04367852 177.88452661 C97.46617852 178.60640161 96.88867852 179.32827661 96.29367852 180.07202661 C95.63367852 180.07202661 94.97367852 180.07202661 94.29367852 180.07202661 C94.21117852 181.02077661 94.12867852 181.96952661 94.04367852 182.94702661 C93.29367852 186.07202661 93.29367852 186.07202661 91.41867852 187.25952661 C90.71742852 187.52765161 90.01617852 187.79577661 89.29367852 188.07202661 C88.58211602 188.81452661 88.58211602 188.81452661 87.85617852 189.57202661 C86.29367852 191.07202661 86.29367852 191.07202661 83.98117852 191.96655786 C78.25865508 194.32044468 72.89640205 198.2806323 70.10617852 203.88452661 C68.29367852 207.07202661 68.29367852 207.07202661 65.41867852 208.75952661 C62.29367852 209.07202661 62.29367852 209.07202661 59.16867852 207.75952661 C55.42051222 204.25580593 54.11005831 200.78560722 52.29367852 196.07202661 C51.5510406 194.42285825 50.8012782 192.77687556 50.04367852 191.13452661 C48.29367852 187.31818046 48.29367852 187.31818046 48.29367852 185.07202661 C47.30367852 184.74202661 46.31367852 184.41202661 45.29367852 184.07202661 C44.30367852 178.62702661 44.30367852 178.62702661 43.29367852 173.07202661 C42.63367852 173.07202661 41.97367852 173.07202661 41.29367852 173.07202661 C36.09674429 151.4935905 31.96635889 118.222548 44.02024102 98.38843286 C46.62750082 93.6457793 47.83779312 88.26116005 49.29367852 83.07202661 C49.95367852 83.07202661 50.61367852 83.07202661 51.29367852 83.07202661 C51.46383477 82.49194849 51.63399102 81.91187036 51.80930352 81.31421411 C53.3663932 76.29508463 55.1738112 72.36184417 58.29367852 68.07202661 C59.30427373 66.41176305 60.30820853 64.74732559 61.29367852 63.07202661 C60.38617852 63.13905786 59.47867852 63.20608911 58.54367852 63.27515161 C52.90236251 63.26947624 47.65178288 61.42683782 42.29367852 59.82202661 C41.2392254 59.52167505 40.18477227 59.22132349 39.09836602 58.91187036 C30.49622092 56.3786572 30.49622092 56.3786572 26.60227227 53.85327661 C22.32785443 51.5520552 19.11122457 51.61014795 14.35617852 51.82202661 C13.57694024 51.84007349 12.79770196 51.85812036 11.9948504 51.87671411 C10.09391721 51.92336278 8.19362683 51.99508832 6.29367852 52.07202661 C6.45867852 53.13937036 6.62367852 54.20671411 6.79367852 55.30640161 C8.76864312 71.41333508 3.47860499 85.37317061 -6.06569648 98.39233911 C-7.90304833 100.27343744 -9.20457682 101.24737745 -11.70632148 102.07202661 C-13.96022773 101.72437036 -13.96022773 101.72437036 -16.70632148 101.07202661 C-20.04975884 100.85420184 -23.38790234 100.68260568 -26.73561835 100.55444849 C-31.05740064 100.33733525 -34.66716048 99.60535656 -38.70632148 98.07202661 C-40.0354383 97.72225903 -41.36714887 97.38106644 -42.70632148 97.07202661 C-42.70632148 96.41202661 -42.70632148 95.75202661 -42.70632148 95.07202661 C-43.2866413 94.93119653 -43.86696113 94.79036645 -44.4648664 94.6452688 C-51.64129288 92.80992958 -56.04314862 90.48222431 -60.89382148 84.82202661 C-61.38817695 84.27417505 -61.88253242 83.72632349 -62.39186835 83.16187036 C-71.70632148 72.68157659 -71.70632148 72.68157659 -71.70632148 69.07202661 C-72.69632148 68.74202661 -73.68632148 68.41202661 -74.70632148 68.07202661 C-76.17116523 65.74390161 -76.17116523 65.74390161 -77.64382148 62.82202661 C-79.13290148 59.88357541 -80.53271643 57.28706826 -82.60475898 54.72046411 C-85.29014358 51.33628055 -87.30778738 47.72044578 -89.39382148 43.94702661 C-89.79665351 43.23159692 -90.19948554 42.51616724 -90.6145246 41.77905786 C-92.23565469 38.87351483 -93.65014534 36.24055502 -94.70632148 33.07202661 C-95.38436835 33.65210474 -96.06241523 34.23218286 -96.76100898 34.82983911 C-114.6615632 49.85440401 -130.59785246 53.54484696 -153.70632148 52.07202661 C-170.38684438 50.05999255 -184.85838063 42.20928488 -195.85085273 29.61499536 C-201.77948451 22.05400607 -208.70632148 10.92719098 -208.70632148 1.07202661 C-198.47632148 1.07202661 -188.24632148 1.07202661 -177.70632148 1.07202661 C-176.22132148 5.03202661 -176.22132148 5.03202661 -174.70632148 9.07202661 C-169.96414045 21.53403723 -163.88563778 33.42239989 -151.70632148 40.07202661 C-141.68989872 43.62183691 -128.94434824 43.88432103 -119.01882148 39.94702661 C-114.12697817 37.52843369 -109.83804566 34.62168341 -105.70632148 31.07202661 C-104.71632148 30.32952661 -103.72632148 29.58702661 -102.70632148 28.82202661 C-99.66214795 24.63628802 -99.92680012 21.08027886 -100.70632148 16.07202661 C-101.61588532 12.86317905 -102.65904183 9.76044149 -103.83132148 6.63843286 C-104.70632148 4.07202661 -104.70632148 4.07202661 -104.70632148 1.07202661 C-69.806513 -0.08012282 -34.91353002 -0.05210329 0 0 Z " fill="#36382F" transform="translate(451.70632147789,548.9279733896255)"/>
<path d="M0 0 C9.9 0 19.8 0 30 0 C30 13.2 30 26.4 30 40 C42.26878905 41.40144155 42.26878905 41.40144155 53.859375 38.2421875 C55.76308367 35.9215509 57.35861795 33.51034902 59 31 C64.49062835 25.93172768 70.95521939 21.95236413 77.203125 17.89453125 C80.05193509 16.02633606 80.05193509 16.02633606 82.734375 13.76171875 C85 12 85 12 87 12 C87.20496094 11.21753906 87.40992188 10.43507813 87.62109375 9.62890625 C87.89050781 8.61699219 88.15992188 7.60507812 88.4375 6.5625 C88.70433594 5.55316406 88.97117187 4.54382813 89.24609375 3.50390625 C90 1 90 1 91 0 C92.45360978 -0.10644578 93.91232802 -0.14405102 95.36979675 -0.15390015 C96.78505142 -0.16680084 96.78505142 -0.16680084 98.22889709 -0.17996216 C99.79431496 -0.18635208 99.79431496 -0.18635208 101.39135742 -0.19287109 C102.48401917 -0.20104858 103.57668091 -0.20922607 104.70245361 -0.21765137 C108.33678632 -0.2425664 111.97107978 -0.25903815 115.60546875 -0.2734375 C117.4628791 -0.28142302 117.4628791 -0.28142302 119.35781288 -0.28956985 C124.56232325 -0.31081449 129.76682768 -0.32994325 134.97136974 -0.34119225 C142.42957535 -0.3574175 149.88725875 -0.39054832 157.34526747 -0.44759309 C163.22121983 -0.49100229 169.09701056 -0.50694163 174.97310829 -0.51332474 C177.47179185 -0.52004983 179.97046744 -0.53530424 182.46904564 -0.55921555 C185.96699155 -0.59077696 189.46361944 -0.59091643 192.96166992 -0.58349609 C193.99516068 -0.59990143 195.02865143 -0.61630676 196.09346008 -0.63320923 C200.68165041 -0.59335262 203.96554874 -0.54057847 207.62739563 2.41146851 C210.35637926 5.38881279 210.88970601 6.28308904 211.5 10.25 C210.89646264 14.77653019 209.73500303 15.86932363 206.41015625 18.73828125 C204 20 204 20 195 22 C195 28.27 195 34.54 195 41 C200.80003198 40.97179472 206.59602947 40.92841966 212.39501953 40.84741211 C214.36368653 40.82434809 216.33247489 40.80986387 218.30126953 40.80444336 C231.00852459 40.76257962 240.94040189 40.72200828 250.75 31.75 C257.36835842 23.53572537 260.14759517 11.18822656 262 1 C263.65 1 265.3 1 267 1 C267.02492888 6.08625949 267.04296724 11.17248252 267.05493164 16.25878906 C267.05992544 17.98503235 267.06672279 19.71127149 267.07543945 21.4375 C267.08772415 23.93490633 267.09327796 26.43225621 267.09765625 28.9296875 C267.10281754 29.68740448 267.10797882 30.44512146 267.11329651 31.22579956 C267.11387976 36.94015832 266.57609283 42.23907166 266 48 C217.985 48.495 217.985 48.495 169 49 C165.56672437 55.69208917 165.56672437 55.69208917 163.5 62.4375 C162.1854871 67.6026784 160.26556198 72.19258799 158 77 C157.54625 78.11375 157.0925 79.2275 156.625 80.375 C153.12234586 88.18861307 148.91702159 95.39350528 143.9140625 102.3359375 C142.13895849 104.80659246 140.41781282 107.30885923 138.70654297 109.82397461 C129.72887069 122.97628365 129.72887069 122.97628365 125 128 C124.34 128 123.68 128 123 128 C122.67 128.99 122.34 129.98 122 131 C120.44042969 132.34692383 120.44042969 132.34692383 118.421875 133.70703125 C117.67953613 134.2086377 116.93719727 134.71024414 116.17236328 135.22705078 C115.3729834 135.75024902 114.57360352 136.27344727 113.75 136.8125 C112.9338623 137.34858887 112.11772461 137.88467773 111.27685547 138.43701172 C100.17199729 145.60558454 89.93045993 150.12769945 76.6015625 151.19140625 C72.42702977 151.53562211 69.16320894 152.24068354 65.3125 153.9375 C57.94759912 157.09063376 50.09824857 157.54463905 42.203125 158.421875 C34.95933703 159.05322283 34.95933703 159.05322283 28.5625 162.125 C25.14336094 164.62680907 23.14661773 164.6031444 19 164 C15.28401103 161.88864263 12.91194048 159.27104526 11.359375 155.234375 C10.72864936 151.31290691 11.64199794 147.61747638 12.45703125 143.76953125 C12.9300711 140.48547764 13.00897831 137.62045818 12.9453125 134.3203125 C12.88720638 128.02776162 13.77419677 122.20803475 15.0625 116.0625 C15.28655518 114.98057373 15.51061035 113.89864746 15.74145508 112.78393555 C18.92953659 98.02485985 23.83583378 84.16971453 29.9375 70.375 C30.31994873 69.49884033 30.70239746 68.62268066 31.09643555 67.7199707 C34.38692192 60.55464241 38.15292198 55.66473228 43 49 C12.805 48.505 12.805 48.505 -18 48 C-18 46.35 -18 44.7 -18 43 C-14 42 -14 42 0 42 C0 28.14 0 14.28 0 0 Z " fill="#98A288" transform="translate(568,549)"/>
<path d="M0 0 C4.72776748 2.22437585 7.30579132 5.49304115 10.375 9.5625 C10.85396729 10.18656738 11.33293457 10.81063477 11.82641602 11.45361328 C22.0090018 24.80080212 22.0090018 24.80080212 24.75390625 30.859375 C27.02136372 35.47817027 30.23759736 38.44534633 34 41.875 C46.27154751 53.61885153 54.36329191 67.97993432 62 83 C65.04858503 88.95949203 68.61248875 94.3927587 72.4375 99.875 C81.20506078 112.481189 89.64052742 126.34370982 90.31640625 142.08203125 C90.35830078 143.01337891 90.40019531 143.94472656 90.44335938 144.90429688 C90.48267578 145.86400391 90.52199219 146.82371094 90.5625 147.8125 C90.62727539 149.28106445 90.62727539 149.28106445 90.69335938 150.77929688 C90.7990226 153.18607027 90.90112327 155.59293983 91 158 C92.52367187 158.41958984 92.52367187 158.41958984 94.078125 158.84765625 C111.5911341 163.86815185 125.37570149 172.10791989 135 188 C138.74972881 195.08739951 141.67650316 202.05901898 143 210 C133.1 210 123.2 210 113 210 C112.484375 207.48375 111.96875 204.9675 111.4375 202.375 C108.70888784 190.29847262 104.12874558 178.76885228 94 171 C92.67467252 170.31755639 91.34223261 169.6485629 90 169 C89.99589111 169.67353516 89.99178223 170.34707031 89.98754883 171.04101562 C89.95395782 174.19480826 89.88325583 177.34683012 89.8125 180.5 C89.80379883 182.08748047 89.80379883 182.08748047 89.79492188 183.70703125 C89.52461499 193.73842025 87.23017426 199.66344237 84 210 C51.33 210 18.66 210 -15 210 C-22.36777567 190.35259821 -22.40173636 170.97485543 -22.42553711 150.26489258 C-22.42982991 147.39211912 -22.45061734 144.52024851 -22.48706055 141.64770508 C-22.70026353 124.51960604 -21.97770549 108.34755837 -17.67376709 91.64381409 C-16.70321089 87.83542068 -15.84090008 84.00384946 -14.97019958 80.1716156 C-14.77378372 79.31060745 -14.57736786 78.4495993 -14.375 77.5625 C-14.18273331 76.71273087 -13.99046661 75.86296173 -13.79237366 74.98744202 C-13.29371376 72.9646796 -12.65944232 70.97619971 -12 69 C-10.515 68.505 -10.515 68.505 -9 68 C-8.855625 66.906875 -8.71125 65.81375 -8.5625 64.6875 C-8 61 -8 61 -7 58 C-6.16793765 44.98200636 -5.86497907 31.48574612 -10 19 C-11.48328093 14.22653227 -12.65500536 10.05289852 -12 5 C-8.55801715 0.097782 -5.87587932 -0.83941133 0 0 Z " fill="#9BA389" transform="translate(548,277)"/>
<path d="M0 0 C9.07710578 1.34530395 15.47861109 9.38900646 20.9375 16.1875 C24.02944735 19.80949546 26.99316417 21.80824746 31.1875 23.9375 C36.3596628 26.62116938 39.96533952 29.84171879 43.8671875 34.13671875 C45.85341934 36.2682943 45.85341934 36.2682943 48.3515625 37.62890625 C51.51308982 39.53441894 53.83625957 41.82164586 56.4375 44.4375 C56.92524902 44.92766602 57.41299805 45.41783203 57.91552734 45.92285156 C60.39301726 48.45450792 62.63213515 50.96770793 64.5625 53.9375 C66.97360171 57.62039162 70.22080108 59.94608432 73.75390625 62.51171875 C76.0309698 64.25923264 78.01928611 66.05180154 79.9375 68.1875 C79.9375 68.8475 79.9375 69.5075 79.9375 70.1875 C81.4225 70.6825 81.4225 70.6825 82.9375 71.1875 C84.91015625 73.55078125 84.91015625 73.55078125 87 76.5 C87.69222656 77.46550781 88.38445312 78.43101562 89.09765625 79.42578125 C92.13268585 83.98154755 93.36837376 87.65876412 94.4375 93.0625 C95.1067377 96.43051146 95.75066012 99.66039888 96.8984375 102.8984375 C98.45440571 107.82372033 99.21850644 112.84853145 100.0625 117.9375 C100.24425781 118.97132813 100.42601562 120.00515625 100.61328125 121.0703125 C102.91687019 134.82256527 103.18274373 152.73761504 95.5 165.0625 C94.36505077 166.48118654 93.16665781 167.849609 91.9375 169.1875 C90.92690346 170.34098827 89.91650613 171.49465108 88.90625 172.6484375 C76.47588551 186.56053161 76.47588551 186.56053161 68.625 189.375 C63.92235495 189.13588246 61.44296076 187.42640721 57.5625 184.8828125 C52.81497359 181.81670169 47.70302201 179.2379696 42.41796875 177.23046875 C34.42363021 173.86906971 29.69270149 167.98635088 25.4453125 160.640625 C24.08573623 158.20493139 24.08573623 158.20493139 22.3359375 156.625 C20.59493199 154.83536305 20.13782753 153.32194849 19.4375 150.9375 C18.62883286 148.22268887 17.73617132 145.74548944 16.55859375 143.16015625 C14.2763055 137.92117131 12.95393448 132.38786823 11.5 126.875 C11.19433105 125.72813721 10.88866211 124.58127441 10.57373047 123.3996582 C8.10702225 114.04721308 5.89698776 104.6583575 3.9375 95.1875 C3.75945831 94.39903687 3.58141663 93.61057373 3.39797974 92.79821777 C2.9227802 90.10404522 2.82639325 87.63826946 2.84326172 84.90429688 C2.84591034 83.8713147 2.84855896 82.83833252 2.85128784 81.77404785 C2.85653473 80.66267456 2.86178162 79.55130127 2.8671875 78.40625 C2.85858911 76.01171153 2.84810796 73.61717923 2.8359375 71.22265625 C2.81940003 67.47983716 2.81215002 63.73838777 2.83789062 59.99560547 C2.93828374 42.91280454 2.75548864 24.3999405 -8.0625 10.1875 C-7.8532118 4.22278632 -7.8532118 4.22278632 -5.76171875 1.484375 C-3.63231753 -0.14082317 -2.65123992 -0.20690257 0 0 Z " fill="#262821" transform="translate(410.0625,140.8125)"/>
<path d="M0 0 C3.88936274 3.3847027 5.85618132 7.12830383 8.0625 11.6875 C8.41393066 12.40429932 8.76536133 13.12109863 9.12744141 13.85961914 C12.66028291 21.17977948 15.03733763 28.22402576 16.375 36.25 C16.684375 37.11625 16.684375 37.11625 17 38 C21.18060826 39.39353609 23.07488623 37.75228293 27 36 C27.99 36 28.98 36 30 36 C30 37.65 30 39.3 30 41 C40.23 41 50.46 41 61 41 C59.88410104 48.81129272 59.88410104 48.81129272 58.75 52.3125 C56.95033648 58.05723874 55.37068558 63.85605803 53.80175781 69.66723633 C52.95334898 72.76701126 52.13883276 75.68958655 50.82421875 78.62890625 C49.71459988 81.82103256 50.04555202 84.26463058 50.375 87.625 C51.01287539 95.33529555 51.12182177 103.01523723 51.125 110.75 C51.12935059 111.8735791 51.13370117 112.9971582 51.13818359 114.15478516 C51.12097699 124.82131645 51.00070241 135.00697914 47 145 C46.65324219 145.88171875 46.30648437 146.7634375 45.94921875 147.671875 C45.26378956 149.3966641 44.57056436 151.11838936 43.8671875 152.8359375 C43.18632921 154.53501629 42.57882957 156.26351128 42 158 C41.34 158 40.68 158 40 158 C39.79375 158.721875 39.5875 159.44375 39.375 160.1875 C37.89271571 163.21944514 36.1733006 164.69459832 33.5234375 166.73046875 C31.74531135 168.12621174 31.74531135 168.12621174 29.75 170.8125 C29.1725 171.534375 28.595 172.25625 28 173 C27.34 173 26.68 173 26 173 C25.9175 173.94875 25.835 174.8975 25.75 175.875 C25 179 25 179 23.125 180.1875 C22.073125 180.5896875 22.073125 180.5896875 21 181 C20.525625 181.495 20.05125 181.99 19.5625 182.5 C18 184 18 184 15.6875 184.89453125 C9.96497656 187.24841807 4.60272353 191.20860568 1.8125 196.8125 C0 200 0 200 -2.875 201.6875 C-6 202 -6 202 -9.125 200.6875 C-12.87316631 197.18377932 -14.18362021 193.71358061 -16 189 C-16.74263793 187.35083164 -17.49240032 185.70484895 -18.25 184.0625 C-20 180.24615385 -20 180.24615385 -20 178 C-20.99 177.67 -21.98 177.34 -23 177 C-23.66 173.37 -24.32 169.74 -25 166 C-25.66 166 -26.32 166 -27 166 C-32.19693423 144.42156389 -36.32731963 111.15052139 -24.2734375 91.31640625 C-21.6661777 86.57375269 -20.4558854 81.18913344 -19 76 C-18.34 76 -17.68 76 -17 76 C-16.82984375 75.41992188 -16.6596875 74.83984375 -16.484375 74.2421875 C-14.92728533 69.22305802 -13.11986732 65.28981756 -10 61 C-8.98940479 59.33973644 -7.98546999 57.67529898 -7 56 C-8.36125 56.10054687 -8.36125 56.10054687 -9.75 56.203125 C-15.39131601 56.19744963 -20.64189564 54.35481121 -26 52.75 C-27.05445313 52.44964844 -28.10890625 52.14929688 -29.1953125 51.83984375 C-34.99029156 50.1333023 -39.89213596 48.21901848 -45 45 C-46.32646156 44.3197633 -47.65608877 43.64507739 -49 43 C-48.12859375 42.79246094 -47.2571875 42.58492187 -46.359375 42.37109375 C-29.14624707 37.91878036 -16.54966377 29.11360168 -7 14 C-4.42906767 9.44955414 -2.18389715 4.74699188 0 0 Z " fill="#3C4035" transform="translate(520,556)"/>
<path d="M0 0 C2.31114506 1.07034162 4.6423417 2.03550342 7 3 C7 3.66 7 4.32 7 5 C7.680625 5.185625 8.36125 5.37125 9.0625 5.5625 C11.9385039 6.96990616 13.27158609 8.15607068 15.4375 10.4375 C18.3699377 13.52326778 21.09985083 15.22720492 25 17 C28.30040172 19.68921622 30.2746364 23.30748493 31.9375 27.1875 C32.83591816 29.13271837 32.83591816 29.13271837 34.7265625 29.734375 C37.98287491 31.54716748 40.09008284 34.23460091 42.4375 37.0625 C42.92541016 37.64233643 43.41332031 38.22217285 43.91601562 38.81958008 C47.14636183 42.74098189 49.81229325 46.68682056 52 51.29296875 C53.0293965 53.33560564 53.0293965 53.33560564 56 55 C58.42669735 59.34251105 58.4617167 63.1519746 58 68 C55.79259319 70.96858157 54.51402627 71.82865791 51 73 C36.98418794 74.34333763 22.85927867 74.64068448 9 72 C8.22269531 71.85433594 7.44539062 71.70867187 6.64453125 71.55859375 C-6.41416829 68.66534894 -17.12133019 62.59838585 -27.71484375 54.671875 C-30.98345804 52.28047856 -32.46712146 51.89983859 -36.4453125 52.11328125 C-49.16466514 52.59934951 -58.49831052 51.36074367 -70 46 C-72.2465804 45.05433475 -74.49632214 44.11612389 -76.75 43.1875 C-77.67296875 42.78917969 -78.5959375 42.39085937 -79.546875 41.98046875 C-84.66097434 39.93645771 -89.30277728 39.78560276 -94.75 39.75 C-95.5234375 39.729375 -96.296875 39.70875 -97.09375 39.6875 C-102.74525797 39.64957042 -106.80667952 40.77429122 -112 43 C-116.0442078 44.34806927 -119.77160933 44.55118687 -124 44 C-126.85452101 41.83748408 -126.95179081 40.2506878 -127.625 36.75 C-126.60628756 30.63772538 -122.88604261 27.08191623 -117.953125 23.5234375 C-112.80633127 20.46165875 -107.37304777 18.75511667 -101.6796875 16.98046875 C-98.57222861 15.84348306 -96.4102092 14.24952859 -94 12 C-93.34 12 -92.68 12 -92 12 C-91.61908203 11.10474609 -91.61908203 11.10474609 -91.23046875 10.19140625 C-87.59352931 3.71419029 -79.41575551 0.2454695 -72.5625 -1.6875 C-72.046875 -1.790625 -71.53125 -1.89375 -71 -2 C-71 -2.66 -71 -3.32 -71 -4 C-49.69806607 -13.01235666 -19.92305196 -11.70439329 0 0 Z " fill="#2A2C25" transform="translate(404,328)"/>
<path d="M0 0 C0 0.66 0 1.32 0 2 C0.62003906 2.00257813 1.24007812 2.00515625 1.87890625 2.0078125 C10.75604014 2.39546027 17.98545707 5.4632179 26 9 C26 9.66 26 10.32 26 11 C28.97 11.99 31.94 12.98 35 14 C35 14.99 35 15.98 35 17 C35.53367187 17.14695312 36.06734375 17.29390625 36.6171875 17.4453125 C45.51540542 20.12401478 53.15095734 24.08541765 58.84375 31.58203125 C59.96277158 33.15245378 59.96277158 33.15245378 62 34 C62 34.66 62 35.32 62 36 C62.61875 36.12375 63.2375 36.2475 63.875 36.375 C66 37 66 37 68 39 C68.4375 42.3125 68.4375 42.3125 68 46 C64.04031906 51.11391992 59.34253137 52.77519672 53.4375 54.8125 C52.58736328 55.12380859 51.73722656 55.43511719 50.86132812 55.75585938 C46.94030734 57.15512562 44.23161339 58 40 58 C40 58.66 40 59.32 40 60 C31.43133906 62.57815545 23.67227074 63.39291237 14.75 63.1875 C13.61175781 63.17396484 12.47351563 63.16042969 11.30078125 63.14648438 C8.53333013 63.11160054 5.76693895 63.06259317 3 63 C2.67 62.01 2.34 61.02 2 60 C0.86111328 59.90912109 0.86111328 59.90912109 -0.30078125 59.81640625 C-1.29464844 59.73261719 -2.28851563 59.64882813 -3.3125 59.5625 C-4.29863281 59.48128906 -5.28476562 59.40007813 -6.30078125 59.31640625 C-9 59 -9 59 -12 58 C-18.83555589 57.40038983 -23.85276483 59.01625428 -30 62 C-30.33 62.33 -30.66 62.66 -31 63 C-32.50418739 63.09311889 -34.01271356 63.11746028 -35.51977539 63.11352539 C-36.96115623 63.11341209 -36.96115623 63.11341209 -38.43165588 63.11329651 C-39.476436 63.10813522 -40.52121613 63.10297394 -41.59765625 63.09765625 C-42.66165146 63.0962413 -43.72564667 63.09482635 -44.82188416 63.09336853 C-48.23545083 63.08775064 -51.648953 63.07519511 -55.0625 63.0625 C-57.37044176 63.05748731 -59.67838455 63.052924 -61.98632812 63.04882812 C-67.65757426 63.0377754 -73.32878253 63.02101987 -79 63 C-79.33 63.99 -79.66 64.98 -80 66 C-81.7080259 66.72262634 -83.41874212 67.44027473 -85.1484375 68.109375 C-88.01959278 69.49043703 -89.89973666 71.65264686 -92 74 C-93 75 -93 75 -96.8125 75.3125 C-99.75470292 75.24899922 -100.92613691 75.04143539 -103.5625 73.5625 C-105.4359453 70.22288011 -105.34361112 68.10628121 -104.7421875 64.375 C-103.4358672 60.19477504 -100.89776498 57.21273943 -98 54 C-96.700625 52.5459375 -96.700625 52.5459375 -95.375 51.0625 C-93 49 -93 49 -91.13671875 48.72265625 C-87.78182875 47.58800424 -86.49883578 45.18622951 -84.4375 42.375 C-83.67308594 41.35148438 -82.90867187 40.32796875 -82.12109375 39.2734375 C-79.90062268 36.07649378 -79.90062268 36.07649378 -78.59765625 32.50390625 C-76.68164728 28.30180344 -74.29640761 25.72470395 -71 22.5625 C-70.42403076 22.00191895 -69.84806152 21.44133789 -69.25463867 20.86376953 C-62.10492576 14.02987578 -55.15516862 7.86226994 -45.2890625 5.66796875 C-42.88170145 5.07585885 -42.88170145 5.07585885 -40.57421875 3.5 C-29.63094582 -2.87665676 -12.18115541 -0.19516271 0 0 Z " fill="#3A3C33" transform="translate(378,669)"/>
<path d="M0 0 C9.09399284 -0.07009685 18.18788999 -0.12310971 27.28209591 -0.15543652 C31.50676584 -0.17096657 35.7312484 -0.19196729 39.95581055 -0.22631836 C44.04721936 -0.25937129 48.13845015 -0.27694763 52.22998238 -0.28463173 C53.77617755 -0.29009419 55.32236511 -0.30075529 56.86848259 -0.31719017 C79.33359792 -0.54607613 105.15465586 3.2884401 122.29296875 19.17578125 C131.78425257 29.31864062 138.70171223 41.21027339 141 55 C131.1 55 121.2 55 111 55 C110.484375 52.48375 109.96875 49.9675 109.4375 47.375 C106.72591979 35.37385411 102.18707423 23.58964662 92 16 C81.45372364 9.41940063 71.15418655 7.53627941 58.875 7.8125 C52.996875 7.9053125 52.996875 7.9053125 47 8 C47 23.18 47 38.36 47 54 C37.43 54 27.86 54 18 54 C18 38.16 18 22.32 18 6 C12.06 6 6.12 6 0 6 C0 4.02 0 2.04 0 0 Z " fill="#DBB9AA" transform="translate(550,432)"/>
<path d="M0 0 C9.9 0 19.8 0 30 0 C30 13.2 30 26.4 30 40 C42.26878905 41.40144155 42.26878905 41.40144155 53.859375 38.2421875 C55.76308367 35.9215509 57.35861795 33.51034902 59 31 C64.49062835 25.93172768 70.95521939 21.95236413 77.203125 17.89453125 C80.05193509 16.02633606 80.05193509 16.02633606 82.734375 13.76171875 C85 12 85 12 87 12 C87.99 8.37 88.98 4.74 90 1 C99.9 1 109.8 1 120 1 C117.20572371 14.97138143 107.26578282 26.64488085 96 34.9375 C77.56979212 46.92296747 57.16057607 48.34888512 35.80859375 48.1953125 C34.24105513 48.19156753 32.67351412 48.18872762 31.10597229 48.18673706 C27.04384529 48.17921708 22.98186868 48.1596736 18.9197998 48.1373291 C14.74928825 48.11661498 10.57875164 48.10768155 6.40820312 48.09765625 C-1.72793246 48.07641262 -9.86394736 48.04242362 -18 48 C-18 46.35 -18 44.7 -18 43 C-14 42 -14 42 0 42 C0 28.14 0 14.28 0 0 Z " fill="#D9B7A9" transform="translate(568,549)"/>
<path d="M0 0 C1.10794922 0.84304688 1.10794922 0.84304688 2.23828125 1.703125 C13.17131658 10.69125076 24.07005206 26.58704225 25.6875 40.953125 C25.80261341 42.30119332 25.91076735 43.64997155 26 45 C21.8882744 45.02465746 17.77657722 45.04283959 13.66479492 45.05493164 C12.26504772 45.0599708 10.8653058 45.06680216 9.46557617 45.07543945 C7.45754223 45.0875232 5.44947043 45.09269807 3.44140625 45.09765625 C2.23170166 45.10289307 1.02199707 45.10812988 -0.22436523 45.11352539 C-3 45 -3 45 -4 44 C-4.2952296 42.21163075 -4.58535007 40.4222571 -4.84863281 38.62890625 C-7.26508001 22.55639865 -12.5213649 9.20329899 -25.03125 -1.7109375 C-30.7023756 -5.4241745 -35.64862248 -6.55951236 -42.3125 -6.5 C-43.43180908 -6.49141968 -43.43180908 -6.49141968 -44.57373047 -6.48266602 C-52.7980946 -6.21768054 -58.58559588 -3.40909754 -64.6875 2.0625 C-74.47252321 12.74756072 -78.18163528 26.14304012 -81 40 C-79.453125 39.9071875 -79.453125 39.9071875 -77.875 39.8125 C-71.48146782 39.80100084 -65.12436437 41.24788526 -59 43 C-58.34 43.66 -57.68 44.32 -57 45 C-75.15 45 -93.3 45 -112 45 C-108.48770059 32.12156883 -108.48770059 32.12156883 -105.25 25.875 C-104.89929443 25.18978271 -104.54858887 24.50456543 -104.18725586 23.79858398 C-101.33507445 18.36650118 -98.14140099 13.54759384 -94 9 C-93.32324219 8.24332031 -92.64648438 7.48664063 -91.94921875 6.70703125 C-67.81888499 -18.8805518 -27.76901205 -21.24405294 0 0 Z " fill="#D9B7A8" transform="translate(500,442)"/>
<path d="M0 0 C37.62 0 75.24 0 114 0 C115.125 18 115.125 18 115.09765625 24.34375 C115.0962413 25.00918823 115.09482635 25.67462646 115.09336853 26.36022949 C115.08794077 28.40687339 115.07542852 30.4533914 115.0625 32.5 C115.05746251 33.9205713 115.05290368 35.34114437 115.04882812 36.76171875 C115.03802909 40.17451742 115.02089572 43.58724637 115 47 C113.35 47 111.7 47 110 47 C109.79246094 45.92363281 109.58492187 44.84726562 109.37109375 43.73828125 C106.92757733 31.85005457 103.87093768 19.53245388 93.3828125 12.1484375 C83.83073261 7.54464818 74.82102969 7.46517717 64.4375 7.3125 C59.013125 7.209375 53.58875 7.10625 48 7 C48 22.84 48 38.68 48 55 C38.1 55 28.2 55 18 55 C18 38.83 18 22.66 18 6 C12.06 6 6.12 6 0 6 C0 4.02 0 2.04 0 0 Z " fill="#D8B6A7" transform="translate(715,432)"/>
<path d="M0 0 C5.41928188 4.4533686 9.41595948 9.65022219 11.64453125 16.3359375 C12.13441978 21.90139241 12.41267666 26.74274702 9.95703125 31.8359375 C3.29269922 39.04062078 3.29269922 39.04062078 -1.4921875 39.57421875 C-7.75059997 39.75631651 -11.32887115 39.15615167 -16.35546875 35.3359375 C-19.88038724 31.63025396 -20.63254346 28.74662144 -20.79296875 23.7734375 C-20.53273963 17.56991114 -19.02684995 14.93303509 -14.54296875 10.6484375 C-11.46499252 8.41539592 -9.00764827 7.29246071 -5.35546875 6.3359375 C-13.54909879 -1.29261461 -22.41010362 -3.43930255 -33.28881836 -3.32543945 C-40.67243334 -2.98138427 -46.27387961 -0.92685863 -52.35546875 3.3359375 C-53.47308594 4.11324219 -53.47308594 4.11324219 -54.61328125 4.90625 C-66.49196174 14.2556297 -72.97082824 30.45375893 -75.8125 44.8515625 C-76.35546875 47.3359375 -76.35546875 47.3359375 -77.35546875 48.3359375 C-79.50105702 48.42369355 -81.64951296 48.44288969 -83.796875 48.43359375 C-85.10205078 48.43037109 -86.40722656 48.42714844 -87.75195312 48.42382812 C-89.14062565 48.41547151 -90.52929752 48.40700655 -91.91796875 48.3984375 C-93.31054531 48.39342416 -94.70312356 48.38886097 -96.09570312 48.38476562 C-99.51566745 48.37293184 -102.93554719 48.3564463 -106.35546875 48.3359375 C-104.61819465 42.0472791 -102.62735664 36.15438264 -99.66796875 30.3359375 C-99.31984131 29.64878662 -98.97171387 28.96163574 -98.61303711 28.25366211 C-95.52160123 22.33704175 -91.86964443 17.26441611 -87.35546875 12.3359375 C-86.69160156 11.56894531 -86.02773438 10.80195313 -85.34375 10.01171875 C-64.04409151 -13.17774308 -25.81425198 -18.23693424 0 0 Z " fill="#D8B6A8" transform="translate(349.35546875,438.6640625)"/>
<path d="M0 0 C9.9 0 19.8 0 30 0 C30.99 3.96 31.98 7.92 33 12 C34.17722284 14.85348579 35.32628294 17.47860851 36.75 20.1875 C37.10143066 20.86603027 37.45286133 21.54456055 37.81494141 22.24365234 C43.004046 32.02087014 48.97268955 40.14281242 60.01171875 43.63671875 C68.95026746 45.2698917 76.66119621 43.58136838 84.1953125 38.52734375 C95.91117054 29.10565563 100.20660103 13.90912956 104 0 C113.57 0 123.14 0 133 0 C125.36734563 19.84490136 115.30984251 36.38997156 95.55078125 45.609375 C77.85781605 52.59614407 57.97697483 54.07359429 40 47 C30.99986761 43.06562729 23.88412864 37.96956996 17 31 C16.37609375 30.39800781 15.7521875 29.79601562 15.109375 29.17578125 C11.15316734 25.06809717 8.39570698 20.47873633 5.6875 15.5 C5.34960449 14.88302246 5.01170898 14.26604492 4.66357422 13.63037109 C4.34533691 13.02016113 4.02709961 12.40995117 3.69921875 11.78125 C3.41908936 11.24564453 3.13895996 10.71003906 2.8503418 10.15820312 C1.56114884 6.88617737 0.85295924 3.41183697 0 0 Z " fill="#DBB9AA" transform="translate(390,550)"/>
<path d="M0 0 C24.42 0 48.84 0 74 0 C71.91561854 14.59067025 66.34750307 29.06844195 55 39 C47.52939022 43.63999241 40.79479321 45.87324188 32 45 C22.27149443 42.57153094 15.76621739 36.98934459 10.3125 28.75 C4.56793129 19.13637245 1.89939494 11.39636963 0 0 Z " fill="#818C71" transform="translate(420,550)"/>
<path d="M0 0 C9.57 0 19.14 0 29 0 C29.33 12.87 29.66 25.74 30 39 C35.7996102 39.11537686 41.59517204 39.21473252 47.39501953 39.2746582 C49.36390747 39.29966047 51.33270393 39.333674 53.30126953 39.37719727 C66.11650147 39.65324762 75.83915981 39.80345283 85.75 30.75 C92.36835842 22.53572537 95.14759517 10.18822656 97 0 C98.65 0 100.3 0 102 0 C102.02492888 5.08625949 102.04296724 10.17248252 102.05493164 15.25878906 C102.05992544 16.98503235 102.06672279 18.71127149 102.07543945 20.4375 C102.08772415 22.93490633 102.09327796 25.43225621 102.09765625 27.9296875 C102.10281754 28.68740448 102.10797882 29.44512146 102.11329651 30.22579956 C102.11387976 35.94015832 101.57609283 41.23907166 101 47 C61.73 47 22.46 47 -18 47 C-18 42 -18 42 -17 41 C-8.585 40.505 -8.585 40.505 0 40 C0 26.8 0 13.6 0 0 Z " fill="#DAB8A9" transform="translate(733,550)"/>
<path d="M0 0 C10.23 0 20.46 0 31 0 C32.485 3.96 32.485 3.96 34 8 C38.74218103 20.46201062 44.8206837 32.35037328 57 39 C67.01642276 42.5498103 79.76197324 42.81229442 89.6875 38.875 C94.57364666 36.45234233 98.90939885 33.60150754 103 30 C103.59296875 29.48824219 104.1859375 28.97648438 104.796875 28.44921875 C110.95000791 22.745319 115.38448709 15.53084884 119 8 C120.65 8.66 122.3 9.32 124 10 C122.15219479 22.36432625 112.89282305 33.6433488 103.30078125 41.09765625 C87.80476842 51.50938527 68.69409178 53.43765173 50.49609375 50.3515625 C33.15612282 46.71720084 19.04547701 37.7755484 8.89453125 23.1796875 C4.82913737 16.35653158 0 8.02800514 0 0 Z " fill="#D9B7A8" transform="translate(243,550)"/>
<path d="M0 0 C3.88936274 3.3847027 5.85618132 7.12830383 8.0625 11.6875 C8.41393066 12.40429932 8.76536133 13.12109863 9.12744141 13.85961914 C12.63265655 21.12253677 14.85370332 28.12537478 16.4609375 36.01171875 C16.94845798 38.1981407 16.94845798 38.1981407 18.625 40.5625 C20.6359185 44.12731008 20.20612117 46.94628364 20 51 C19.34 51 18.68 51 18 51 C17.9175 51.763125 17.835 52.52625 17.75 53.3125 C16.82643306 56.62194821 15.88769314 57.24007494 13 59 C6.07310059 60.41599601 -0.22588741 58.12198026 -6.73046875 55.93359375 C-9.85029767 55.04274654 -12.46014608 54.73659592 -15.6875 54.625 C-21.27740365 54.32607467 -26.16602925 52.89187277 -31.4375 51.125 C-32.20731201 50.86799316 -32.97712402 50.61098633 -33.77026367 50.34619141 C-37.82835133 48.93162493 -41.37132216 47.34232114 -45 45 C-46.32608822 44.31903578 -47.65686601 43.64669414 -49 43 C-48.12859375 42.79246094 -47.2571875 42.58492187 -46.359375 42.37109375 C-29.14624707 37.91878036 -16.54966377 29.11360168 -7 14 C-4.42906767 9.44955414 -2.18389715 4.74699188 0 0 Z " fill="#6D7E5F" transform="translate(520,556)"/>
<path d="M0 0 C0.70769531 0.28617187 1.41539062 0.57234375 2.14453125 0.8671875 C3.7777266 1.54365895 5.39189888 2.26586688 7 3 C6.76023437 4.19496094 6.76023437 4.19496094 6.515625 5.4140625 C6.12108135 8.15793423 5.91346545 10.64570371 5.859375 13.3984375 C5.84003906 14.20925781 5.82070313 15.02007812 5.80078125 15.85546875 C5.76771906 17.49586187 5.74876159 19.13661965 5.74609375 20.77734375 C5.47560745 29.87422495 2.96263467 35.51956904 0 45 C-11.22 45 -22.44 45 -34 45 C-34 29.49 -34 13.98 -34 -2 C-23.42371028 -4.64407243 -10.03531409 -4.37689534 0 0 Z " fill="#899078" transform="translate(632,442)"/>
<path d="M0 0 C0.33 0 0.66 0 1 0 C1.08813808 4.12486211 1.14077078 8.24947739 1.1875 12.375 C1.21263672 13.53128906 1.23777344 14.68757813 1.26367188 15.87890625 C1.3232351 22.90736692 1.02579591 29.5322629 -2 36 C-2.99 36.495 -2.99 36.495 -4 37 C-4.78126385 38.96826536 -4.78126385 38.96826536 -5.3671875 41.390625 C-5.61339844 42.33035156 -5.85960937 43.27007812 -6.11328125 44.23828125 C-6.36464844 45.23214844 -6.61601563 46.22601563 -6.875 47.25 C-7.11863281 48.16652344 -7.36226562 49.08304687 -7.61328125 50.02734375 C-8.4667295 53.33943048 -9.2314758 56.66718343 -10 60 C-10.17389252 60.66980896 -10.34778503 61.33961792 -10.52694702 62.02972412 C-15.0450565 79.56771147 -14.3748431 97.22763316 -14.09979248 115.17999268 C-14.0009172 121.66255403 -13.9216997 128.14503607 -13.87112236 134.62815475 C-13.84803603 136.87706686 -13.80604767 139.12508761 -13.76271057 141.37368774 C-13.74863026 142.74081628 -13.73531711 144.107953 -13.72290039 145.47509766 C-13.70417374 146.66640289 -13.68544708 147.85770813 -13.66615295 149.08511353 C-14 152 -14 152 -15.39231873 153.9078064 C-17 155 -17 155 -19 155 C-19.33 156.65 -19.66 158.3 -20 160 C-22.38000264 156.92128099 -24.48883169 153.72939245 -26.5625 150.4375 C-28.34966075 147.60494629 -30.14209266 144.78686101 -32 142 C-31.6778371 140.33113813 -31.3424109 138.66482542 -31 137 C-31.24905428 134.6382784 -31.57226677 132.28406379 -31.9375 129.9375 C-34.63672351 109.45137967 -33.67383669 89.85842841 -28 70 C-27.34 70 -26.68 70 -26 70 C-25.87625 69.071875 -25.7525 68.14375 -25.625 67.1875 C-25 64 -25 64 -23 61 C-22.34 61 -21.68 61 -21 61 C-20.80277344 60.15695312 -20.80277344 60.15695312 -20.6015625 59.296875 C-18.07609463 49.65417949 -13.66798393 43.13753121 -6.25 36.5625 C-0.24053928 29.71839196 -0.48764453 20.60965632 -0.3125 11.9375 C-0.27833984 10.78572266 -0.24417969 9.63394531 -0.20898438 8.44726562 C-0.12720179 5.6316079 -0.05782625 2.81623429 0 0 Z " fill="#23261F" transform="translate(541,309)"/>
<path d="M0 0 C1.14915894 -0.03903442 1.14915894 -0.03903442 2.3215332 -0.07885742 C7.8523337 -0.09664135 11.02840419 1.30656005 15.625 4.375 C16.125 7.4375 16.125 7.4375 15.625 11.375 C13.32125395 14.17021188 10.5126137 16.21047902 7.625 18.375 C6.81160156 19.03371094 5.99820313 19.69242187 5.16015625 20.37109375 C-1.05193662 25.375 -1.05193662 25.375 -3.375 25.375 C-4.09843101 27.49911659 -4.81108946 29.62603996 -5.51171875 31.7578125 C-6.06145057 33.42442027 -6.62509868 35.08654835 -7.20703125 36.7421875 C-9.47643839 43.56158826 -10.04964307 50.21714753 -10.375 57.375 C-12.03605305 54.88342043 -13.38866436 52.41012235 -14.73291016 49.74389648 C-22.59999144 34.34172072 -32.14502826 20.71593332 -44.76953125 8.8671875 C-45.62933594 8.04476563 -46.48914063 7.22234375 -47.375 6.375 C-47.375 6.045 -47.375 5.715 -47.375 5.375 C-31.73257332 2.05623904 -15.99384717 0.29446189 0 0 Z " fill="#2C2F28" transform="translate(621.375,305.625)"/>
<path d="M0 0 C2.6875 -0.3125 2.6875 -0.3125 5 0 C4.47453952 4.8342364 3.40905112 9.20873092 1.95703125 13.84375 C0.4676635 18.75562404 -0.86045382 23.71217918 -2.19824219 28.66723633 C-3.04665102 31.76701126 -3.86116724 34.68958655 -5.17578125 37.62890625 C-6.28540012 40.82103256 -5.95444798 43.26463058 -5.625 46.625 C-4.98712461 54.33529555 -4.87817823 62.01523723 -4.875 69.75 C-4.87064941 70.8735791 -4.86629883 71.9971582 -4.86181641 73.15478516 C-4.87902301 83.82131645 -4.99929759 94.00697914 -9 104 C-9.34675781 104.88171875 -9.69351563 105.7634375 -10.05078125 106.671875 C-10.73621044 108.3966641 -11.42943564 110.11838936 -12.1328125 111.8359375 C-12.81367079 113.53501629 -13.42117043 115.26351128 -14 117 C-14.66 117 -15.32 117 -16 117 C-16.20625 117.721875 -16.4125 118.44375 -16.625 119.1875 C-18.10728429 122.21944514 -19.8266994 123.69459832 -22.4765625 125.73046875 C-24.25468865 127.12621174 -24.25468865 127.12621174 -26.25 129.8125 C-26.8275 130.534375 -27.405 131.25625 -28 132 C-28.66 132 -29.32 132 -30 132 C-29.33839574 124.0607489 -27.64997811 116.49337774 -25.8125 108.75 C-25.65726868 108.09037262 -25.50203735 107.43074524 -25.34210205 106.75112915 C-22.7759038 95.86213021 -19.91570215 85.08234995 -16.70410156 74.36523438 C-15.98228968 71.94050706 -15.28158666 69.51047826 -14.5859375 67.078125 C-14.1407786 65.53120579 -13.69547334 63.98432869 -13.25 62.4375 C-12.95198486 61.39178833 -12.95198486 61.39178833 -12.64794922 60.32495117 C-11.19120718 55.32996123 -11.19120718 55.32996123 -9.93115234 53.15551758 C-8.7106764 50.33024696 -8.86700905 48.20662252 -9.0234375 45.140625 C-9.10078125 43.46806641 -9.10078125 43.46806641 -9.1796875 41.76171875 C-9.24414062 40.60285156 -9.30859375 39.44398438 -9.375 38.25 C-9.43171875 37.07566406 -9.4884375 35.90132812 -9.546875 34.69140625 C-9.68822928 31.79364353 -9.83963219 28.89676251 -10 26 C-10.66 26 -11.32 26 -12 26 C-11.66216125 16.50673102 -9.75435715 11.75435715 -3 5 C-2.525625 4.0925 -2.05125 3.185 -1.5625 2.25 C-1.046875 1.5075 -0.53125 0.765 0 0 Z " fill="#32342B" transform="translate(576,597)"/>
<path d="M0 0 C0.69140625 1.64453125 0.69140625 1.64453125 1 4 C-0.22265625 6.69921875 -0.22265625 6.69921875 -2.0625 9.6875 C-2.70445312 10.73808594 -3.34640625 11.78867187 -4.0078125 12.87109375 C-6.61011693 16.95824247 -9.26135317 21.00316325 -12 25 C-11.61779297 24.57702637 -11.23558594 24.15405273 -10.84179688 23.71826172 C-9.06831703 21.76391254 -7.28427538 19.81949602 -5.5 17.875 C-4.89929688 17.20984375 -4.29859375 16.5446875 -3.6796875 15.859375 C7.49022755 3.73882888 7.49022755 3.73882888 14 3 C16 5 16 5 16.0625 7.9375 C15.11901977 13.64676497 11.22460644 18.34410611 8 23 C9.10408203 21.84371094 9.10408203 21.84371094 10.23046875 20.6640625 C11.21573685 19.65064388 12.20143687 18.63764506 13.1875 17.625 C13.67025391 17.11710937 14.15300781 16.60921875 14.65039062 16.0859375 C17.56117467 13.11654707 20.00455339 11.21251213 24 10 C21.56234816 12.446296 19.11929265 14.88426243 16.640625 17.2890625 C5.8810828 27.55673202 5.8810828 27.55673202 -2 40 C-2.99 39.67 -3.98 39.34 -5 39 C-4.468485 34.36210296 -2.57397584 31.5681935 0.125 27.8125 C0.52662354 27.24587646 0.92824707 26.67925293 1.34204102 26.09545898 C3.23476694 23.42869178 5.15710347 20.78424063 7.08203125 18.140625 C10.15322707 13.87327923 12.7662121 10.20932669 14 5 C5.37876527 8.96651874 -1.02727684 15.5890442 -7.08984375 22.76953125 C-9.49278363 25.57541811 -11.99436848 28.28626936 -14.5 31 C-18.25189113 35.07113322 -21.9366161 39.1912878 -25.5625 43.375 C-27.29549636 45.33403937 -29.11339257 47.18885687 -31 49 C-31.62939453 47.18994141 -31.62939453 47.18994141 -32 45 C-30.37634429 42.61659595 -28.7528863 40.54350477 -26.875 38.375 C-25.7620604 37.03681074 -24.652829 35.6955308 -23.546875 34.3515625 C-22.96486328 33.64547852 -22.38285156 32.93939453 -21.78320312 32.21191406 C-13.93767206 22.48019015 -6.44454599 12.28686703 -1 1 C-10.53385574 5.29547346 -18.7271297 10.6630547 -27 17 C-27.83273437 17.63292969 -28.66546875 18.26585937 -29.5234375 18.91796875 C-34.25028526 22.75743431 -36.6360998 26.38573703 -39 32 C-32.07 31.01 -32.07 31.01 -25 30 C-28.82418401 32.868138 -29.70896268 33.42362507 -34.125 33.8125 C-34.99382812 33.90144531 -35.86265625 33.99039063 -36.7578125 34.08203125 C-39 34 -39 34 -41 32 C-40.6835118 25.89510923 -38.19003424 23.52348769 -33.921875 19.5 C-10.33593903 -0.68047997 -10.33593903 -0.68047997 0 0 Z " fill="#596E64" transform="translate(504,491)"/>
<path d="M0 0 C7.90734967 0.73556741 11.40944887 5.33296952 16.30859375 11.046875 C19.3832029 14.59723199 22.65818741 17.75038895 26.3125 20.6875 C27.199375 21.450625 28.08625 22.21375 29 23 C29 23.66 29 24.32 29 25 C29.556875 25.226875 30.11375 25.45375 30.6875 25.6875 C33.63246684 27.35896766 35.68156544 29.55276352 38 32 C28.63032527 32.79304457 22.37204215 32.05420807 15 26 C7.84750969 19.73250342 1.81066639 9.37832334 0 0 Z " fill="#373A30" transform="translate(423,562)"/>
<path d="M0 0 C0.33 0 0.66 0 1 0 C1.1953125 6.0546875 1.1953125 6.0546875 1 8 C0.34 8.66 -0.32 9.32 -1 10 C-1.39460023 12.32375692 -1.72230092 14.6593935 -2 17 C-2.226875 17.86625 -2.45375 18.7325 -2.6875 19.625 C-3.07990583 22.60728431 -2.29672789 24.33026611 -1 27 C-1.66 27.66 -2.32 28.32 -3 29 C-2.608125 29.886875 -2.21625 30.77375 -1.8125 31.6875 C-1 35 -1 35 -2.33984375 37.3828125 C-2.88769531 38.24648438 -3.43554688 39.11015625 -4 40 C-6.82307058 47.11368975 -7.22247739 53.9602121 -6.8125 61.5 C-6.7491748 62.66631958 -6.7491748 62.66631958 -6.68457031 63.85620117 C-6.39859734 67.7333347 -5.81991806 70.59523663 -4 74 C-3.91796875 76.25390625 -3.91796875 76.25390625 -4.1875 78.5625 C-4.26355469 79.32691406 -4.33960938 80.09132813 -4.41796875 80.87890625 C-5.10629314 83.38736361 -6.12692763 84.25276712 -8 86 C-8.95168683 88.85506049 -9.1900946 90.90937282 -9.31640625 93.88671875 C-9.35830078 94.82451172 -9.40019531 95.76230469 -9.44335938 96.72851562 C-9.48267578 97.70498047 -9.52199219 98.68144531 -9.5625 99.6875 C-9.60568359 100.67556641 -9.64886719 101.66363281 -9.69335938 102.68164062 C-9.79941654 105.12095546 -9.90147714 107.56037113 -10 110 C-10.33 110 -10.66 110 -11 110 C-11.11759666 101.93964204 -11.20555321 93.87966207 -11.25906086 85.81864929 C-11.28478546 82.07263176 -11.31946913 78.32721484 -11.37719727 74.58154297 C-11.63923832 57.10688656 -11.14319651 40.67221316 -6.68582153 23.62669373 C-5.93094806 20.73553135 -5.23026163 17.83410933 -4.53637695 14.92773438 C-1.27701807 1.27701807 -1.27701807 1.27701807 0 0 Z " fill="#505E46" transform="translate(537,345)"/>
<path d="M0 0 C2.6875 -0.3125 2.6875 -0.3125 5 0 C4.47453952 4.8342364 3.40905112 9.20873092 1.95703125 13.84375 C0.4676635 18.75562404 -0.86045382 23.71217918 -2.19824219 28.66723633 C-3.0447272 31.75998232 -3.87052281 34.70039067 -5.14453125 37.6484375 C-6.23159738 40.63662841 -6.19464281 43.14375198 -6.125 46.3125 C-6.10695313 47.38113281 -6.08890625 48.44976563 -6.0703125 49.55078125 C-6.04710937 50.35902344 -6.02390625 51.16726563 -6 52 C-10.71275795 44.93086308 -10.28649599 34.30838372 -10 26 C-10.66 26 -11.32 26 -12 26 C-11.66216125 16.50673102 -9.75435715 11.75435715 -3 5 C-2.525625 4.0925 -2.05125 3.185 -1.5625 2.25 C-1.046875 1.5075 -0.53125 0.765 0 0 Z " fill="#2B3225" transform="translate(576,597)"/>
<path d="M0 0 C12 0 12 0 15.25 2.5625 C17.31317045 6.61515623 17.95727394 8.53272162 17 13 C12.84809317 18.61728572 7.64231232 19.9781058 1 21 C1 26.94 1 32.88 1 39 C0.67 39 0.34 39 0 39 C0 26.13 0 13.26 0 0 Z " fill="#AEB29B" transform="translate(762,550)"/>
<path d="M0 0 C0.495 1.485 0.495 1.485 1 3 C-0.18147632 5.22020358 -1.36755684 7.14842094 -2.8125 9.1875 C-3.22193848 9.76685303 -3.63137695 10.34620605 -4.05322266 10.94311523 C-11.75449753 21.43117022 -21.31026274 26.65342381 -34 29 C-27.58495655 19.6447283 -19.78795936 13.65977288 -10.36743164 7.55126953 C-6.74797162 5.20287622 -3.32378891 2.76452806 0 0 Z " fill="#8C937A" transform="translate(653,561)"/>
<path d="M0 0 C0.66 0 1.32 0 2 0 C0.36637168 4.64955752 0.36637168 4.64955752 -1.4375 6.375 C-4.50501572 9.56521635 -6 13.62623853 -6 18 C-5.34 18.66 -4.68 19.32 -4 20 C-4.66 20.86625 -5.32 21.7325 -6 22.625 C-8.26552208 25.79422039 -8.26552208 25.79422039 -8 29.125 C-8 32 -8 32 -10 34.375 C-10.66 34.91125 -11.32 35.4475 -12 36 C-11.34 36 -10.68 36 -10 36 C-10.55728913 39.34373475 -11.35173889 42.03312999 -13 45 C-13.66 45 -14.32 45 -15 45 C-15.66 47.31 -16.32 49.62 -17 52 C-17.33 52 -17.66 52 -18 52 C-18.28907209 44.55444059 -17.21440073 37.8382476 -15.6875 30.5625 C-15.47416016 29.49451172 -15.26082031 28.42652344 -15.04101562 27.32617188 C-13.69805853 20.76372182 -12.05178255 14.37648718 -10 8 C-9.34 9.32 -8.68 10.64 -8 12 C-7.34 12 -6.68 12 -6 12 C-5.896875 11.071875 -5.79375 10.14375 -5.6875 9.1875 C-4.96879051 5.85530145 -4.50450848 5.10378712 -2 3 C-1.34 2.01 -0.68 1.02 0 0 Z " fill="#67795A" transform="translate(599,634)"/>
<path d="M0 0 C0.99 0.66 1.98 1.32 3 2 C2.50769231 8.4 2.50769231 8.4 -0.0625 11.4375 C-1.0215625 12.2109375 -1.0215625 12.2109375 -2 13 C-2.66 12.67 -3.32 12.34 -4 12 C-2.69791667 10.53515625 -1.39583333 9.0703125 -0.09375 7.60546875 C1.28151241 5.910552 1.28151241 5.910552 1 3 C-6.28608262 2.00644328 -11.95162659 5.13100001 -18 9 C-20.76085591 11.38209386 -23.29597541 13.74985271 -25 17 C-24.99069488 19.17385313 -24.99069488 19.17385313 -24 21 C-21.00384054 22.3045656 -21.00384054 22.3045656 -18 23 C-19 26 -19 26 -21.44140625 27.359375 C-22.47136719 27.81828125 -23.50132812 28.2771875 -24.5625 28.75 C-30.10159844 31.42040068 -35.0525039 34.18966322 -39 39 C-40.20794918 42.20287857 -40.20794918 42.20287857 -40 45 C-39.67 45.33 -39.34 45.66 -39 46 C-33.17888361 45.83441026 -27.59202759 44.52509843 -22 43 C-23.44548994 45.89097988 -25.67229046 46.35240275 -28.59765625 47.39453125 C-32.67107524 48.4211653 -36.84014666 48.59536934 -41 48 C-43 46 -43 46 -43.5625 43.375 C-42.69226088 38.15356526 -39.93529534 35.41482079 -36 32 C-31.83820852 29.05438209 -27.43489335 26.50754872 -23 24 C-23.63550781 23.72414063 -24.27101563 23.44828125 -24.92578125 23.1640625 C-27 22 -27 22 -28.1875 19.375 C-27.89245928 14.06426704 -24.82864936 11.4630306 -21 8 C-14.59847949 2.98050033 -8.39765069 -0.74645784 0 0 Z " fill="#5C7167" transform="translate(611,493)"/>
<path d="M0 0 C0.66 0 1.32 0 2 0 C2.6875 2.1875 2.6875 2.1875 3 5 C2.02099762 6.67908669 1.01825354 8.3444223 0 10 C-2.82307058 17.11368975 -3.22247739 23.9602121 -2.8125 31.5 C-2.7702832 32.27754639 -2.72806641 33.05509277 -2.68457031 33.85620117 C-2.39859734 37.7333347 -1.81991806 40.59523663 0 44 C0.08203125 46.25390625 0.08203125 46.25390625 -0.1875 48.5625 C-0.26355469 49.32691406 -0.33960938 50.09132813 -0.41796875 50.87890625 C-1.11030211 53.40197347 -2.0756825 54.27623172 -4 56 C-4.66 56.99 -5.32 57.98 -6 59 C-6.02495201 53.7896356 -6.04297787 48.57930695 -6.05493164 43.36889648 C-6.05992164 41.60098666 -6.06671601 39.83308089 -6.07543945 38.06518555 C-6.20710215 10.67159963 -6.20710215 10.67159963 -1 4 C-0.23060319 1.77397385 -0.23060319 1.77397385 0 0 Z " fill="#768569" transform="translate(533,375)"/>
<path d="M0 0 C0 0.33 0 0.66 0 1 C-3.75 1.46875 -3.75 1.46875 -7.5 1.9375 C-8.19609375 2.02451172 -8.8921875 2.11152344 -9.609375 2.20117188 C-10.30546875 2.28818359 -11.0015625 2.37519531 -11.71875 2.46484375 C-12.42902344 2.56651855 -13.13929688 2.66819336 -13.87109375 2.77294922 C-16 3 -16 3 -18.03515625 2.90283203 C-20.37519687 2.8747836 -21.8434616 3.05936526 -24 4 C-30.53811692 10.66348602 -34.81575388 19.61727869 -39.25 27.75 C-40.44257065 29.9115343 -41.6352753 32.07299468 -42.828125 34.234375 C-43.37533203 35.23146484 -43.92253906 36.22855469 -44.48632812 37.25585938 C-46.28944883 40.52474273 -48.13393729 43.76672302 -50 47 C-51.1870884 43.43873479 -50.5022333 42.3632466 -48.90258789 39.11157227 C-48.56348389 38.45600342 -48.22437988 37.80043457 -47.875 37.125 C-47.52751709 36.44042725 -47.18003418 35.75585449 -46.82202148 35.05053711 C-34.64136509 11.64136509 -34.64136509 11.64136509 -29 6 C-33.62 6.66 -38.24 7.32 -43 8 C-43 7.34 -43 6.68 -43 6 C-28.51475328 2.46450139 -15.02388246 -0.40004421 0 0 Z " fill="#586D63" transform="translate(661,492)"/>
<path d="M0 0 C2.05403464 3.08105196 2.75783174 4.36747606 3 8 C1.76484176 13.07444177 -0.33999568 17.23234849 -4 21 C-4.825 21.433125 -5.65 21.86625 -6.5 22.3125 C-10.54160324 25.04058218 -12.44322954 29.48106266 -13.484375 34.19140625 C-13.65453125 34.78824219 -13.8246875 35.38507812 -14 36 C-14.99 36.495 -14.99 36.495 -16 37 C-14.63616331 29.29311221 -11.88372229 22.74996878 -8.5625 15.6875 C-8.07201172 14.61693359 -7.58152344 13.54636719 -7.07617188 12.44335938 C-5.0050114 7.97960325 -3.09005143 3.85705743 0 0 Z M0 6 C-0.33 6.99 -0.66 7.98 -1 9 C-0.34 9 0.32 9 1 9 C0.67 8.01 0.34 7.02 0 6 Z " fill="#79876C" transform="translate(606,605)"/>
<path d="M0 0 C0.66 0.33 1.32 0.66 2 1 C1.23816406 1.67804688 0.47632813 2.35609375 -0.30859375 3.0546875 C-14.47764057 14.89810583 -14.47764057 14.89810583 -24 30 C-24.99 29.67 -25.98 29.34 -27 29 C-26.48074387 24.4118188 -24.4645201 21.33490196 -21.8125 17.6875 C-21.40829834 17.1200708 -21.00409668 16.5526416 -20.58764648 15.96801758 C-19.77674804 14.83379131 -18.96179573 13.70245102 -18.14257812 12.57421875 C-17.13188718 11.18171122 -16.13517995 9.77907758 -15.140625 8.375 C-12.21132943 4.3145903 -12.21132943 4.3145903 -11 3 C-10.34 3 -9.68 3 -9 3 C-10.19976433 6.08510827 -11.50002556 9.05047042 -13 12 C-12.31292969 11.30132813 -11.62585938 10.60265625 -10.91796875 9.8828125 C-10.01691406 8.97273438 -9.11585938 8.06265625 -8.1875 7.125 C-7.29417969 6.22007812 -6.40085937 5.31515625 -5.48046875 4.3828125 C-3 2 -3 2 0 0 Z " fill="#647C71" transform="translate(526,501)"/>
<path d="M0 0 C0.33 0.99 0.66 1.98 1 3 C2.546875 2.9071875 2.546875 2.9071875 4.125 2.8125 C10.51853218 2.80100084 16.87563563 4.24788526 23 6 C23.66 6.66 24.32 7.32 25 8 C6.85 8 -11.3 8 -30 8 C-29.67 7.34 -29.34 6.68 -29 6 C-19.43 6.33 -9.86 6.66 0 7 C0 4.69 0 2.38 0 0 Z " fill="#8E8E78" transform="translate(418,479)"/>
<path d="M0 0 C1.65 0 3.3 0 5 0 C5.97620815 3.10713109 6.21391887 4.52792819 4.84765625 7.54296875 C4.25855469 8.41566406 3.66945313 9.28835938 3.0625 10.1875 C2.41925781 11.14269531 1.77601563 12.09789062 1.11328125 13.08203125 C-1.53235766 16.73506686 -4.31024311 20.25105076 -7.203125 23.7109375 C-10.61660602 28.0594155 -12.35753511 31.47480192 -13 37 C-10.03 36.34 -7.06 35.68 -4 35 C-7.2893401 38.89847716 -7.2893401 38.89847716 -10.625 39.375 C-13 39 -13 39 -15 37 C-16.06488765 31.67556176 -13.80574948 28.26989126 -11.05859375 23.921875 C-8.15382929 19.7989835 -5.02037929 15.86561062 -1.78393555 11.99804688 C1.10053756 8.47623006 2.82940589 5.49181461 4 1 C2.35 1.33 0.7 1.66 -1 2 C-0.67 1.34 -0.34 0.68 0 0 Z " fill="#566A61" transform="translate(529,499)"/>
<path d="M0 0 C0.66 0 1.32 0 2 0 C3.86145321 3.72290643 4.05999612 7.88026619 4 12 C2.75 14.5 2.75 14.5 0 16 C-8.01116963 18.07805207 -16.0160792 18.34989239 -24.25 18.3125 C-26.01984253 18.31056641 -26.01984253 18.31056641 -27.82543945 18.30859375 C-36.54262335 18.21276761 -44.60118307 17.36348617 -53 15 C-53 14.67 -53 14.34 -53 14 C-52.33355469 14.06058594 -51.66710937 14.12117188 -50.98046875 14.18359375 C-50.05878906 14.26738281 -49.13710938 14.35117187 -48.1875 14.4375 C-47.29417969 14.51871094 -46.40085937 14.59992188 -45.48046875 14.68359375 C-44.33191406 14.78800781 -43.18335938 14.89242188 -42 15 C-41.21753906 15.08886475 -40.43507813 15.17772949 -39.62890625 15.26928711 C-32.24639669 16.05556204 -25.03619872 15.99736111 -17.625 15.6875 C-15.90216797 15.63432617 -15.90216797 15.63432617 -14.14453125 15.58007812 C-13.03722656 15.53689453 -11.92992187 15.49371094 -10.7890625 15.44921875 C-9.79600098 15.41143311 -8.80293945 15.37364746 -7.77978516 15.3347168 C-4.85459932 14.98249215 -2.6331775 14.31249906 0 13 C1.57170996 9.85658007 1.23175783 6.44228549 1 3 C0.505 1.515 0.505 1.515 0 0 Z " fill="#11120F" transform="translate(460,385)"/>
<path d="M0 0 C1.65 0 3.3 0 5 0 C5 0.66 5 1.32 5 2 C3.48019531 2.77923828 3.48019531 2.77923828 1.9296875 3.57421875 C0.5779249 4.27826177 -0.77362641 4.98271059 -2.125 5.6875 C-2.79015625 6.02716797 -3.4553125 6.36683594 -4.140625 6.71679688 C-9.70424554 9.63497039 -14.45171651 12.67757477 -18 18 C-17.67 19.65 -17.34 21.3 -17 23 C-10.565 22.505 -10.565 22.505 -4 22 C-6.91962891 24.91962891 -9.53345188 25.17066904 -13.5 25.25 C-14.2734375 25.27578125 -15.046875 25.3015625 -15.84375 25.328125 C-18.53409796 24.91872422 -19.39940476 24.16821848 -21 22 C-21.10968371 17.17391669 -19.22459874 14.24616805 -16.08984375 10.8125 C-12.06715913 7.32366699 -5.5019072 2 0 2 C0 1.34 0 0.68 0 0 Z " fill="#5D7469" transform="translate(550,516)"/>
<path d="M0 0 C0.33 0 0.66 0 1 0 C1.29916684 6.07852617 0.50358914 10.5018617 -1.75 16.125 C-2.00265625 16.80175781 -2.2553125 17.47851562 -2.515625 18.17578125 C-4.19826317 22.52540091 -6.32288746 26.15550924 -9 30 C-9.5259375 31.3303125 -9.5259375 31.3303125 -10.0625 32.6875 C-11.09077421 35.22390973 -11.88138095 36.2928092 -14 38 C-16.33984375 38.6171875 -16.33984375 38.6171875 -18.9375 38.875 C-20.21947266 39.02582031 -20.21947266 39.02582031 -21.52734375 39.1796875 C-24.54033955 38.96073362 -25.78300768 37.9855198 -28 36 C-27.09507812 36.14308594 -27.09507812 36.14308594 -26.171875 36.2890625 C-25.37265625 36.39992188 -24.5734375 36.51078125 -23.75 36.625 C-22.96109375 36.74101563 -22.1721875 36.85703125 -21.359375 36.9765625 C-18.55189055 37.00445142 -17.31327553 36.58002869 -15 35 C-7.22821585 25.86951233 -1.47032549 11.85685552 0 0 Z " fill="#171813" transform="translate(459,613)"/>
<path d="M0 0 C0.99 0.66 1.98 1.32 3 2 C3.1875 4.625 3.1875 4.625 3 7 C2.34 5.68 1.68 4.36 1 3 C-7.19893401 2.10881152 -13.67326532 5.99451684 -20.0625 10.875 C-22.69108994 13.26800877 -23.03024721 14.10675486 -24.0625 17.75 C-24.37402319 21.08823039 -24.37402319 21.08823039 -22 23 C-25.875 22.125 -25.875 22.125 -27 21 C-27.62080721 17.81836307 -27.48470194 15.7779542 -25.75390625 13 C-21.55409149 7.87874782 -16.96035596 4.78300174 -11 2 C-9.6696875 1.3503125 -9.6696875 1.3503125 -8.3125 0.6875 C-5.40700055 -0.17629713 -3.01534423 -0.26220385 0 0 Z " fill="#5E746A" transform="translate(572,493)"/>
<path d="M0 0 C-0.33 14.19 -0.66 28.38 -1 43 C-1.33 43 -1.66 43 -2 43 C-2 29.8 -2 16.6 -2 3 C-11.97971633 8.62578114 -11.97971633 8.62578114 -14 15 C-14.99 15.33 -15.98 15.66 -17 16 C-15.58732575 11.50512739 -13.46089404 9.15325902 -10 6 C-9.41347656 5.45601562 -8.82695313 4.91203125 -8.22265625 4.3515625 C-3.39099178 0 -3.39099178 0 0 0 Z " fill="#12140E" transform="translate(537,740)"/>
<path d="M0 0 C-0.185625 1.0725 -0.37125 2.145 -0.5625 3.25 C-1.2043075 6.72154337 -1.2043075 6.72154337 -0.4765625 8.9140625 C0.12862345 11.56299119 -0.26249573 13.47390029 -0.8125 16.125 C-0.98394531 16.99382812 -1.15539062 17.86265625 -1.33203125 18.7578125 C-2 21 -2 21 -4 23 C-4.33923576 20.64655194 -4.67150534 18.2924516 -5 15.9375 C-5.14308594 14.95233398 -5.14308594 14.95233398 -5.2890625 13.94726562 C-5.88887674 9.59861237 -6.09127093 5.38670929 -6 1 C-3.92446352 0.4465236 -2.15634036 0 0 0 Z " fill="#7B8A6C" transform="translate(533,453)"/>
<path d="M0 0 C1 2 1 2 0.37109375 4.2734375 C-1.29954393 7.59567425 -3.39537667 9.91489495 -5.9375 12.625 C-7.25041016 14.03652344 -7.25041016 14.03652344 -8.58984375 15.4765625 C-10.37195093 17.34243161 -12.16066176 19.19101388 -14 21 C-14.65136719 19.22509766 -14.65136719 19.22509766 -15 17 C-14.05957031 15.20068359 -14.05957031 15.20068359 -12.578125 13.3984375 C-12.04703125 12.74359375 -11.5159375 12.08875 -10.96875 11.4140625 C-10.4015625 10.74117187 -9.834375 10.06828125 -9.25 9.375 C-8.69828125 8.694375 -8.1465625 8.01375 -7.578125 7.3125 C-5.15024973 4.35936325 -3.21265194 2.14176796 0 0 Z " fill="#677F74" transform="translate(487,519)"/>
<path d="M0 0 C0.66 0 1.32 0 2 0 C0.36637168 4.64955752 0.36637168 4.64955752 -1.4375 6.375 C-4.50501572 9.56521635 -6 13.62623853 -6 18 C-5.34 18.66 -4.68 19.32 -4 20 C-5.32 21.65 -6.64 23.3 -8 25 C-8.33 24.34 -8.66 23.68 -9 23 C-9.99 23 -10.98 23 -12 23 C-11.33333333 19.66666667 -10.66666667 16.33333333 -10 13 C-8.68 12.67 -7.36 12.34 -6 12 C-5.8453125 10.6078125 -5.8453125 10.6078125 -5.6875 9.1875 C-4.96879051 5.85530145 -4.50450848 5.10378712 -2 3 C-1.34 2.01 -0.68 1.02 0 0 Z " fill="#718364" transform="translate(599,634)"/>
<path d="M0 0 C1.65 0.33 3.3 0.66 5 1 C4.48663117 6.14375433 1.90883791 9.81503268 -0.8125 14.0625 C-1.25142578 14.76955078 -1.69035156 15.47660156 -2.14257812 16.20507812 C-4.44401902 19.8470314 -6.65948247 23.21019686 -10 26 C-10.66 26 -11.32 26 -12 26 C-9.84427789 21.20138693 -6.6802159 16.98917287 -3.72070312 12.6640625 C-1.16812807 8.89035988 1.05913792 5.13794358 3 1 C2.01 0.67 1.02 0.34 0 0 Z " fill="#61786D" transform="translate(500,491)"/>
<path d="M0 0 C0.33 0 0.66 0 1 0 C1.1953125 6.0546875 1.1953125 6.0546875 1 8 C0.34 8.66 -0.32 9.32 -1 10 C-1.39460023 12.32375692 -1.72230092 14.6593935 -2 17 C-2.226875 17.86625 -2.45375 18.7325 -2.6875 19.625 C-3.07990583 22.60728431 -2.29672789 24.33026611 -1 27 C-2.65 27.99 -4.3 28.98 -6 30 C-5.14893617 5.14893617 -5.14893617 5.14893617 0 0 Z " fill="#5D6C51" transform="translate(537,345)"/>
<path d="M0 0 C0.66 0 1.32 0 2 0 C2.6875 2.1875 2.6875 2.1875 3 5 C2.31357422 6.13115234 2.31357422 6.13115234 1.61328125 7.28515625 C-0.67727377 11.13972221 -1.2638928 15.097572 -2.15625 19.453125 C-2.4346875 20.29359375 -2.713125 21.1340625 -3 22 C-3.99 22.33 -4.98 22.66 -6 23 C-5.60265538 9.60948624 -5.60265538 9.60948624 -1 4 C-0.23060319 1.77397385 -0.23060319 1.77397385 0 0 Z " fill="#6C7D60" transform="translate(533,375)"/>
<path d="M0 0 C0.66 0.99 1.32 1.98 2 3 C1.731875 3.515625 1.46375 4.03125 1.1875 4.5625 C-0.09889343 7.10768453 -0.09889343 7.10768453 -1.25 10.3125 C-3.02010088 14.5497363 -5.88433275 17.68267144 -9 21 C-9.33 20.34 -9.66 19.68 -10 19 C-8.80407001 16.28627245 -7.55273934 13.68902645 -6.1875 11.0625 C-5.81818359 10.33353516 -5.44886719 9.60457031 -5.06835938 8.85351562 C-3.49624101 5.77419581 -1.92201329 2.88301994 0 0 Z " fill="#5C6B51" transform="translate(606,605)"/>
<path d="M0 0 C0.66 0.33 1.32 0.66 2 1 C1.23816406 1.67804688 0.47632813 2.35609375 -0.30859375 3.0546875 C-6.26672438 8.40761227 -11.88789827 13.8583712 -17.16015625 19.90625 C-18.71681944 21.67773932 -20.30981565 23.357204 -22 25 C-22 19.51942991 -19.72483154 17.76445741 -16 14 C-13.39896472 11.58628208 -10.70901141 9.29107843 -8 7 C-6.49777892 5.69004271 -4.99770284 4.37762069 -3.5 3.0625 C-2.33333333 2.04166667 -1.16666667 1.02083333 0 0 Z " fill="#4C5F56" transform="translate(526,501)"/>
<path d="M0 0 C0.66 0.33 1.32 0.66 2 1 C-0.09545098 4.94219832 -2.20283345 8.87789341 -4.3125 12.8125 C-5.20485352 14.49182617 -5.20485352 14.49182617 -6.11523438 16.20507812 C-6.69208984 17.27822266 -7.26894531 18.35136719 -7.86328125 19.45703125 C-8.39219971 20.44678955 -8.92111816 21.43654785 -9.46606445 22.45629883 C-10.81314841 24.69014694 -12.05968213 26.28346715 -14 28 C-13.52765622 22.12404335 -11.00395483 17.87443148 -8.125 12.875 C-7.67769531 12.07707031 -7.23039063 11.27914062 -6.76953125 10.45703125 C-4.69353647 6.78882808 -2.58165887 3.33959424 0 0 Z " fill="#60776D" transform="translate(624,511)"/>
<path d="M0 0 C-3.59953107 2.31777923 -7.05931583 3.85774615 -11.125 5.1875 C-12.67574219 5.70376953 -12.67574219 5.70376953 -14.2578125 6.23046875 C-17 7 -17 7 -20 7 C-20 7.66 -20 8.32 -20 9 C-24.455 9.495 -24.455 9.495 -29 10 C-27.68 9.67 -26.36 9.34 -25 9 C-25 8.34 -25 7.68 -25 7 C-23.89205078 6.63648438 -23.89205078 6.63648438 -22.76171875 6.265625 C-16.50554348 4.19878184 -10.31901695 2.03016748 -4.1796875 -0.36328125 C-2 -1 -2 -1 0 0 Z " fill="#1D1E18" transform="translate(443,720)"/>
<path d="M0 0 C0.98484375 0.00902344 1.9696875 0.01804687 2.984375 0.02734375 C4.10585938 0.04474609 4.10585938 0.04474609 5.25 0.0625 C2.08918877 2.65833531 -1.10773987 4.23895154 -4.875 5.8125 C-6.45667969 6.48539063 -6.45667969 6.48539063 -8.0703125 7.171875 C-10.75 8.0625 -10.75 8.0625 -12.75 7.0625 C-11.945625 6.60875 -11.14125 6.155 -10.3125 5.6875 C-7.66143428 4.31524335 -7.66143428 4.31524335 -6.75 2.0625 C-7.74 1.7325 -8.73 1.4025 -9.75 1.0625 C-6.43929162 0.06140485 -3.44915231 -0.04106134 0 0 Z " fill="#677559" transform="translate(666.75,690.9375)"/>
<path d="M0 0 C1.65 0 3.3 0 5 0 C5 1.65 5 3.3 5 5 C-0.94 5.33 -6.88 5.66 -13 6 C-9.99559979 3.99706653 -8.29006055 3.50728374 -4.8125 2.875 C-3.46091797 2.62363281 -3.46091797 2.62363281 -2.08203125 2.3671875 C-1.39496094 2.24601563 -0.70789063 2.12484375 0 2 C0 1.34 0 0.68 0 0 Z " fill="#404138" transform="translate(563,586)"/>
<path d="M0 0 C0.77321882 2.98241547 1.41196203 5.97580475 2 9 C7.852795 8.48517081 13.3297637 7.54642808 19 6 C17.55451006 8.89097988 15.32770954 9.35240275 12.40234375 10.39453125 C8.32892476 11.4211653 4.15985334 11.59536934 0 11 C-2 9 -2 9 -2.25 6.0625 C-2 3 -2 3 0 0 Z " fill="#586D63" transform="translate(570,530)"/>
<path d="M0 0 C0.66 0 1.32 0 2 0 C3.8526375 3.70527501 4.10607319 7.89629331 4 12 C2.2401651 14.67234189 1.15646898 15.63977106 -1.87402344 16.58374023 C-4.08459951 17.01656433 -6.07729852 17.11373358 -8.328125 17.09765625 C-9.12734375 17.09443359 -9.9265625 17.09121094 -10.75 17.08789062 C-11.575 17.07951172 -12.4 17.07113281 -13.25 17.0625 C-14.09046875 17.05798828 -14.9309375 17.05347656 -15.796875 17.04882812 C-17.86461401 17.03707961 -19.93231624 17.01914522 -22 17 C-22 16.67 -22 16.34 -22 16 C-20.24623047 15.92652344 -20.24623047 15.92652344 -18.45703125 15.8515625 C-16.90883196 15.77649829 -15.36065599 15.70095205 -13.8125 15.625 C-13.04357422 15.5940625 -12.27464844 15.563125 -11.48242188 15.53125 C-7.30509838 15.31610888 -3.75784468 15.02850645 0 13 C1.57170996 9.85658007 1.23175783 6.44228549 1 3 C0.67 2.01 0.34 1.02 0 0 Z " fill="#191A15" transform="translate(460,385)"/>
<path d="M0 0 C0 0.33 0 0.66 0 1 C-1.6396875 1.4021875 -1.6396875 1.4021875 -3.3125 1.8125 C-7.41698591 2.98423451 -7.41698591 2.98423451 -10 6 C-9.79681318 8.35815459 -9.79681318 8.35815459 -9 11 C-8.28671779 15.06570859 -7.84045453 18.04543074 -9 22 C-12.87053571 10.54966518 -12.87053571 10.54966518 -12 5 C-8.52254958 0.04726758 -5.9082216 -0.57923741 0 0 Z " fill="#697159" transform="translate(548,277)"/>
<path d="M0 0 C0.33 0 0.66 0 1 0 C1.05418326 2.08304538 1.09287551 4.16649768 1.125 6.25 C1.14820313 7.41015625 1.17140625 8.5703125 1.1953125 9.765625 C1.0103949 12.82786046 0.60823023 14.44202751 -1 17 C-1 14.69 -1 12.38 -1 10 C-1.99 11.485 -1.99 11.485 -3 13 C-3.99 12.67 -4.98 12.34 -6 12 C-4.95833333 10.2421875 -3.91666667 8.484375 -2.875 6.7265625 C-1.84931652 5.02527333 -1.84931652 5.02527333 -2 3 C-1.34 3 -0.68 3 0 3 C0 2.01 0 1.02 0 0 Z " fill="#656C57" transform="translate(636,458)"/>
<path d="M0 0 C0.99 0.99 1.98 1.98 3 3 C3.99 2.34 4.98 1.68 6 1 C5.77042223 2.4409026 5.51543646 3.87777015 5.25 5.3125 C5.11078125 6.11300781 4.9715625 6.91351563 4.828125 7.73828125 C4 10 4 10 0 13 C0 8.71 0 4.42 0 0 Z " fill="#748367" transform="translate(527,435)"/>
<path d="M0 0 C0 3.63327194 -0.95586411 5.04735927 -3 8 C-3.99 8.66 -4.98 9.32 -6 10 C-6.99 9.01 -7.98 8.02 -9 7 C-6.24479785 4.04070881 -3.53372712 1.96318174 0 0 Z " fill="#78816A" transform="translate(641,570)"/>
<path d="M0 0 C0.57234375 0.37511719 1.1446875 0.75023437 1.734375 1.13671875 C0.984375 7.88671875 0.984375 7.88671875 -1.265625 10.13671875 C-1.925625 9.47671875 -2.585625 8.81671875 -3.265625 8.13671875 C-2.275625 5.82671875 -1.285625 3.51671875 -0.265625 1.13671875 C-3.88502004 2.86415729 -7.14130103 4.61322632 -10.265625 7.13671875 C-10.265625 6.14671875 -10.265625 5.15671875 -10.265625 4.13671875 C-8.65625 2.6796875 -8.65625 2.6796875 -6.515625 1.32421875 C-5.81953125 0.86402344 -5.1234375 0.40382813 -4.40625 -0.0703125 C-2.265625 -0.86328125 -2.265625 -0.86328125 0 0 Z " fill="#5B7167" transform="translate(518.265625,494.86328125)"/>
<path d="M0 0 C1.98 0 3.96 0 6 0 C6 1.98 6 3.96 6 6 C4.02 6 2.04 6 0 6 C0 4.02 0 2.04 0 0 Z " fill="#D3B2A3" transform="translate(798,481)"/>
<path d="M0 0 C0.66 0 1.32 0 2 0 C0.36637168 4.64955752 0.36637168 4.64955752 -1.4375 6.375 C-3.79859587 8.8305397 -4.67641844 11.89246068 -6 15 C-6.99 15.495 -6.99 15.495 -8 16 C-7.57476184 14.39253944 -7.13429874 12.78910164 -6.6875 11.1875 C-6.44386719 10.29417969 -6.20023438 9.40085937 -5.94921875 8.48046875 C-4.95864096 5.89192186 -4.02876413 4.82015085 -2 3 C-1.34 2.01 -0.68 1.02 0 0 Z " fill="#748566" transform="translate(599,634)"/>
<path d="M0 0 C0.99 0.33 1.98 0.66 3 1 C1.69144447 2.83615081 0.37805538 4.66885789 -0.9375 6.5 C-1.66839844 7.5209375 -2.39929688 8.541875 -3.15234375 9.59375 C-3.76207031 10.3878125 -4.37179687 11.181875 -5 12 C-5.33 12 -5.66 12 -6 12 C-5.67 9.69 -5.34 7.38 -5 5 C-4.34 5 -3.68 5 -3 5 C-2.87625 4.360625 -2.7525 3.72125 -2.625 3.0625 C-2.41875 2.381875 -2.2125 1.70125 -2 1 C-1.34 0.67 -0.68 0.34 0 0 Z " fill="#768367" transform="translate(710,649)"/>
<path d="M0 0 C2.0625 2.125 2.0625 2.125 4 5 C3.85384044 8.72706873 3.65788293 10.34211707 1 13 C0.1276588 10.00519083 -0.10829766 7.36424089 -0.0625 4.25 C-0.05347656 3.45078125 -0.04445313 2.6515625 -0.03515625 1.828125 C-0.02355469 1.22484375 -0.01195312 0.6215625 0 0 Z " fill="#707E62" transform="translate(528,463)"/>
<path d="M0 0 C0.33 0.99 0.66 1.98 1 3 C-2.3 6.3 -5.6 9.6 -9 13 C-9 9.26130751 -8.09514308 8.63449295 -5.625 5.9375 C-4.99851562 5.24527344 -4.37203125 4.55304688 -3.7265625 3.83984375 C-2.50602933 2.53923035 -1.26120903 1.26120903 0 0 Z " fill="#171914" transform="translate(534,346)"/>
<path d="M0 0 C0.66 0 1.32 0 2 0 C1.91253716 1.43861294 1.80434652 2.87597508 1.6875 4.3125 C1.62949219 5.11300781 1.57148437 5.91351562 1.51171875 6.73828125 C0.91793306 9.36272334 0.04219706 10.30820672 -2 12 C-2.05422947 10.5629191 -2.09289723 9.12524538 -2.125 7.6875 C-2.14820313 6.88699219 -2.17140625 6.08648438 -2.1953125 5.26171875 C-2 3 -2 3 0 0 Z " fill="#1C1F18" transform="translate(567,609)"/>
<path d="M0 0 C-1 3 -1 3 -2.765625 4.1796875 C-5.25718223 5.09442005 -7.10616836 5.20275975 -9.75 5.125 C-10.54921875 5.10695313 -11.3484375 5.08890625 -12.171875 5.0703125 C-12.77515625 5.04710937 -13.3784375 5.02390625 -14 5 C-13 3 -13 3 -10.56640625 2.1484375 C-9.57511719 1.89320313 -8.58382812 1.63796875 -7.5625 1.375 C-6.07943359 0.98441406 -6.07943359 0.98441406 -4.56640625 0.5859375 C-2 0 -2 0 0 0 Z " fill="#758164" transform="translate(652,691)"/>
<path d="M0 0 C0.33 0 0.66 0 1 0 C1.33168041 4.7540859 0.59443287 7.05646203 -2 11 C-2.185625 11.7425 -2.37125 12.485 -2.5625 13.25 C-2.706875 13.8275 -2.85125 14.405 -3 15 C-3.99 15.495 -3.99 15.495 -5 16 C-3.90301833 10.30860098 -2.45946923 5.25432063 0 0 Z " fill="#526048" transform="translate(595,626)"/>
<path d="M0 0 C0.99 0.99 1.98 1.98 3 3 C1.35 4.65 -0.3 6.3 -2 8 C-2 6.68 -2 5.36 -2 4 C-2.99 4.495 -2.99 4.495 -4 5 C-2.25 1.125 -2.25 1.125 0 0 Z " fill="#53675E" transform="translate(489,516)"/>
<path d="M0 0 C0 0.99 0 1.98 0 3 C-3.52381313 6.44186399 -5.95030484 8.55443866 -11 9 C-11.33 7.68 -11.66 6.36 -12 5 C-11.34 5 -10.68 5 -10 5 C-10 5.66 -10 6.32 -10 7 C-5.93184627 5.15083921 -2.9905167 3.33557632 0 0 Z " fill="#405049" transform="translate(573,500)"/>
<path d="M0 0 C0.99 0.33 1.98 0.66 3 1 C0.03 3.64 -2.94 6.28 -6 9 C-6.33 8.01 -6.66 7.02 -7 6 C-5.90716423 4.96704564 -4.80029421 3.94892165 -3.6875 2.9375 C-3.07261719 2.36902344 -2.45773437 1.80054688 -1.82421875 1.21484375 C-0.92123047 0.61349609 -0.92123047 0.61349609 0 0 Z " fill="#647C71" transform="translate(578,523)"/>
<path d="M0 0 C0.99 0.99 1.98 1.98 3 3 C2.1875 4.9375 2.1875 4.9375 1 7 C0.01 7.33 -0.98 7.66 -2 8 C-1.125 1.125 -1.125 1.125 0 0 Z " fill="#68795B" transform="translate(533,367)"/>
<path d="M0 0 C0.33 0 0.66 0 1 0 C1.22142255 1.95689659 1.4267568 3.91561952 1.625 5.875 C1.74101563 6.96554687 1.85703125 8.05609375 1.9765625 9.1796875 C1.98429688 10.11039063 1.99203125 11.04109375 2 12 C1.34 12.66 0.68 13.32 0 14 C-0.66 11.03 -1.32 8.06 -2 5 C-1.67 5 -1.34 5 -1 5 C-0.67 3.35 -0.34 1.7 0 0 Z " fill="#080906" transform="translate(550,813)"/>
<path d="M0 0 C0.33 0 0.66 0 1 0 C1.02689216 1.47906892 1.04634621 2.95827483 1.0625 4.4375 C1.07410156 5.26121094 1.08570313 6.08492187 1.09765625 6.93359375 C1 9 1 9 0 10 C-0.36760731 12.32817964 -0.70241581 14.6618385 -1 17 C-1.33 17 -1.66 17 -2 17 C-2.25287193 10.93107371 -1.69832609 5.83799592 0 0 Z " fill="#44533B" transform="translate(583,669)"/>
<path d="M0 0 C0.66 0 1.32 0 2 0 C2.93065133 2.60582371 3.14917407 3.64198224 2.0625 6.25 C1.5365625 7.11625 1.5365625 7.11625 1 8 C0.01 7.67 -0.98 7.34 -2 7 C-1.125 2.25 -1.125 2.25 0 0 Z " fill="#5C7267" transform="translate(501,523)"/>
<path d="M0 0 C0.33 0.99 0.66 1.98 1 3 C0.34 3 -0.32 3 -1 3 C-1 4.32 -1 5.64 -1 7 C-3.5 8.75 -3.5 8.75 -6 10 C-5.49477778 5.62140745 -2.82172778 3.18348776 0 0 Z " fill="#6F7F61" transform="translate(602,619)"/>
<path d="M0 0 C1.65 0 3.3 0 5 0 C2.25 5.875 2.25 5.875 0 7 C0 4.69 0 2.38 0 0 Z " fill="#464D3E" transform="translate(571,597)"/>
<path d="M0 0 C0.33 0.99 0.66 1.98 1 3 C3.01508358 3.73323796 3.01508358 3.73323796 5 4 C5 4.99 5 5.98 5 7 C3.35 7 1.7 7 0 7 C0 4.69 0 2.38 0 0 Z " fill="#A4AA8E" transform="translate(418,479)"/>
<path d="M0 0 C0.268125 0.598125 0.53625 1.19625 0.8125 1.8125 C1.98493467 3.97224808 3.19369282 5.35790256 5 7 C4.38125 7.103125 3.7625 7.20625 3.125 7.3125 C0.63473516 7.87525373 0.63473516 7.87525373 -1 11 C-1.66 10.67 -2.32 10.34 -3 10 C-2.34 9.01 -1.68 8.02 -1 7 C-0.60612212 4.67612053 -0.26513915 2.34206251 0 0 Z " fill="#1D1E18" transform="translate(446,708)"/>
<path d="M0 0 C0.8184835 3.14750157 1.39827751 5.73412446 1 9 C-1 11.8125 -1 11.8125 -3 14 C-2.28547412 9.23649415 -1.20465156 4.65798604 0 0 Z " fill="#4C5C43" transform="translate(589,642)"/>
<path d="M0 0 C0 0.66 0 1.32 0 2 C-1.36125 2.6496875 -1.36125 2.6496875 -2.75 3.3125 C-5.43218449 4.70517271 -7.66139605 6.11112757 -10 8 C-10 7.01 -10 6.02 -10 5 C-8.3203125 3.61328125 -8.3203125 3.61328125 -6.125 2.3125 C-5.40570312 1.87550781 -4.68640625 1.43851562 -3.9453125 0.98828125 C-2 0 -2 0 0 0 Z " fill="#44544C" transform="translate(518,494)"/>
<path d="M0 0 C1.98 0.99 1.98 0.99 4 2 C3.67 4.64 3.34 7.28 3 10 C0.70366176 6.55549263 0.45983515 4.06187717 0 0 Z " fill="#727F65" transform="translate(530,476)"/>
<path d="M0 0 C1 2 1 2 0.1875 5.0625 C-1 8 -1 8 -3 9 C-2.25 2.25 -2.25 2.25 0 0 Z " fill="#79816A" transform="translate(637,449)"/>
<path d="M0 0 C3.77545388 1.09068668 6.47043472 1.9083091 9 5 C5.65626525 4.44271087 2.96687001 3.64826111 0 2 C0 1.34 0 0.68 0 0 Z " fill="#1B1C19" transform="translate(413,684)"/>
<path d="M0 0 C0.66 0 1.32 0 2 0 C0.75023244 3.65316671 0.32901247 4.78065836 -3 7 C-1.125 1.125 -1.125 1.125 0 0 Z " fill="#7D8C6F" transform="translate(599,634)"/>
<path d="M0 0 C0.99 0.33 1.98 0.66 3 1 C0.69 3.31 -1.62 5.62 -4 8 C-4 4.09161134 -2.49432124 2.88405893 0 0 Z " fill="#5E6453" transform="translate(612,597)"/>
<path d="M0 0 C0.33 0.66 0.66 1.32 1 2 C-0.1875 4.5625 -0.1875 4.5625 -2 7 C-3.32 7.33 -4.64 7.66 -6 8 C-4.02 5.36 -2.04 2.72 0 0 Z " fill="#707662" transform="translate(625,582)"/>
</svg>
